<svg class="img-fluid" id="outputsvg" xmlns="http://www.w3.org/2000/svg" style="transform: matrix(1.11388, 0, 0, 1.11388, 0, 0); transform-origin: 50% 50%; cursor: move; max-height: none; transition: transform 200ms ease-in-out 0s;" width="420" height="420" viewBox="0 0 4200 4200"><g id="l4NqcjQtuXKwWDa57Fcb25k" fill="rgb(0,0,0)" style="transform: none;"><g><path id="pioslKHt7" d="M1050 4100 c0 -5 -11 -12 -25 -16 -14 -3 -25 -10 -25 -15 0 -5 -9 -9 -21 -9 -19 0 -49 -21 -49 -35 0 -3 -9 -16 -20 -28 -11 -11 -23 -38 -26 -59 -4 -21 -10 -38 -15 -38 -5 0 -9 -18 -9 -40 0 -22 -4 -40 -10 -40 -5 0 -10 -15 -10 -34 0 -19 -7 -41 -15 -50 -8 -8 -15 -31 -15 -50 0 -20 -4 -36 -10 -36 -5 0 -10 -18 -10 -40 0 -22 -4 -40 -9 -40 -5 0 -11 -18 -15 -40 -3 -22 -11 -40 -16 -40 -6 0 -10 -20 -10 -45 0 -25 -4 -45 -10 -45 -5 0 -10 -16 -10 -35 0 -22 -6 -38 -15 -41 -10 -4 -15 -20 -15 -44 0 -22 -4 -42 -10 -45 -5 -3 -10 -22 -10 -41 0 -19 -4 -34 -10 -34 -5 0 -10 -12 -10 -27 0 -16 -7 -41 -15 -57 -8 -15 -15 -41 -15 -57 0 -16 -4 -29 -10 -29 -5 0 -10 -13 -10 -29 0 -16 -7 -42 -15 -57 -8 -16 -15 -39 -15 -51 0 -12 -4 -25 -10 -28 -5 -3 -10 -22 -10 -41 0 -19 -4 -34 -10 -34 -5 0 -10 -15 -10 -33 0 -18 -7 -42 -15 -53 -8 -10 -15 -34 -15 -51 0 -18 -4 -33 -10 -33 -5 0 -10 -18 -10 -39 0 -22 -4 -42 -9 -45 -5 -4 -12 -24 -16 -46 -4 -22 -11 -40 -16 -40 -5 0 -9 -18 -9 -40 0 -22 -4 -40 -10 -40 -5 0 -10 -15 -10 -34 0 -18 -7 -39 -15 -46 -9 -7 -15 -29 -15 -51 0 -22 -4 -39 -10 -39 -5 0 -10 -15 -10 -34 0 -19 -5 -38 -10 -41 -6 -3 -10 -19 -10 -34 0 -15 -7 -36 -15 -47 -8 -10 -15 -34 -15 -51 0 -18 -4 -33 -10 -33 -5 0 -10 -13 -10 -29 0 -16 -7 -42 -15 -57 -8 -16 -15 -41 -15 -56 0 -16 -4 -28 -10 -28 -5 0 -10 -15 -10 -34 0 -19 -5 -38 -10 -41 -6 -3 -10 -19 -10 -34 0 -15 -7 -36 -15 -47 -8 -10 -15 -34 -15 -51 0 -18 -4 -33 -10 -33 -5 0 -10 -18 -10 -39 0 -22 -4 -42 -9 -45 -5 -4 -12 -24 -16 -46 -4 -22 -11 -40 -16 -40 -5 0 -9 -18 -9 -40 0 -22 -4 -40 -10 -40 -5 0 -10 -15 -10 -34 0 -18 -7 -39 -15 -46 -17 -14 -22 -130 -5 -130 5 0 12 -11 16 -25 3 -14 10 -25 15 -25 5 0 9 -9 9 -21 0 -19 21 -49 35 -49 3 0 16 -9 28 -20 11 -11 38 -23 59 -26 21 -4 38 -10 38 -15 0 -5 18 -9 40 -9 22 0 40 -4 40 -10 0 -5 15 -10 34 -10 19 0 41 -7 50 -15 8 -8 28 -15 45 -15 16 0 33 -5 36 -10 3 -6 21 -10 40 -10 19 0 36 -4 39 -9 3 -4 24 -11 46 -15 22 -3 40 -11 40 -16 0 -6 20 -10 45 -10 25 0 45 -4 45 -10 0 -5 16 -10 35 -10 22 0 38 -6 41 -15 4 -10 20 -15 44 -15 22 0 42 -4 45 -10 3 -5 22 -10 41 -10 19 0 34 -4 34 -9 0 -4 19 -11 42 -14 24 -3 44 -11 46 -16 2 -6 21 -11 43 -11 21 0 39 -4 39 -10 0 -5 13 -10 29 -10 16 0 42 -7 57 -15 16 -8 41 -15 57 -15 15 0 27 -4 27 -10 0 -5 16 -10 35 -10 19 0 35 -4 35 -10 0 -5 15 -10 33 -10 18 0 42 -7 53 -15 10 -8 34 -15 52 -15 17 0 32 -4 32 -10 0 -5 18 -10 39 -10 22 0 43 -5 46 -10 3 -6 14 -10 23 -10 9 0 30 -7 46 -15 15 -8 44 -15 62 -15 19 0 34 -4 34 -10 0 -5 15 -10 34 -10 18 0 39 -7 46 -15 7 -8 27 -15 46 -15 18 0 36 -4 39 -10 3 -5 21 -10 40 -10 19 0 37 -4 40 -10 3 -5 16 -10 28 -10 12 0 35 -7 51 -15 15 -8 41 -15 57 -15 16 0 29 -4 29 -10 0 -5 13 -10 29 -10 16 0 42 -7 57 -15 16 -8 41 -15 57 -15 15 0 27 -4 27 -10 0 -5 15 -10 34 -10 19 0 38 -5 41 -10 3 -6 19 -10 34 -10 15 0 36 -7 47 -15 10 -8 34 -15 52 -15 17 0 32 -4 32 -10 0 -5 18 -10 39 -10 22 0 42 -4 45 -9 4 -5 24 -12 46 -16 22 -4 40 -11 40 -16 0 -5 18 -9 40 -9 22 0 40 -4 40 -10 0 -5 15 -10 34 -10 18 0 39 -7 46 -15 14 -17 130 -22 130 -5 0 5 11 12 25 16 14 3 25 10 25 15 0 5 9 9 21 9 19 0 49 21 49 35 0 3 8 15 19 26 10 11 21 38 25 60 3 21 11 39 16 39 6 0 10 18 10 40 0 22 5 40 10 40 6 0 10 15 10 33 0 18 7 42 15 53 8 10 15 34 15 52 0 17 5 32 10 32 6 0 10 18 10 40 0 22 5 40 10 40 6 0 10 13 10 29 0 16 7 36 15 45 8 8 15 32 15 55 0 23 5 41 10 41 6 0 10 15 10 33 0 17 7 41 15 51 8 11 15 32 15 48 0 15 5 28 10 28 6 0 10 18 10 40 0 22 5 40 10 40 6 0 10 15 10 33 0 18 7 42 15 53 8 10 15 34 15 52 0 17 5 32 10 32 6 0 10 15 10 34 0 19 4 37 9 40 5 4 12 24 16 46 4 22 11 42 16 46 5 3 9 21 9 40 0 19 5 34 10 34 6 0 10 17 10 39 0 22 6 44 15 51 8 7 15 28 15 46 0 19 5 34 10 34 6 0 10 18 10 39 0 22 4 43 10 46 6 3 10 16 10 29 0 12 7 31 15 42 8 10 15 36 15 57 0 20 5 37 10 37 6 0 10 15 10 34 0 18 7 39 15 46 9 7 15 29 15 51 0 22 5 39 10 39 6 0 10 15 10 34 0 19 5 38 10 41 6 3 10 19 10 34 0 15 7 36 15 47 8 10 15 34 15 52 0 17 5 32 10 32 6 0 10 15 10 34 0 19 4 37 9 41 6 3 13 26 17 50 3 25 10 45 15 45 5 0 9 15 9 34 0 19 5 38 10 41 6 3 10 21 10 39 0 19 7 39 15 46 8 7 15 28 15 46 0 19 5 34 10 34 6 0 10 18 10 39 0 22 4 42 9 45 4 3 11 24 15 46 3 22 11 40 16 40 6 0 10 18 10 40 0 22 5 40 10 40 6 0 10 15 10 34 0 18 7 39 15 46 17 14 22 130 5 130 -5 0 -12 11 -16 25 -3 14 -10 25 -15 25 -5 0 -9 9 -9 21 0 19 -21 49 -35 49 -3 0 -15 9 -27 19 -11 11 -38 23 -59 26 -22 4 -39 11 -39 16 0 5 -18 9 -40 9 -22 0 -40 5 -40 10 0 6 -15 10 -33 10 -18 0 -42 7 -53 15 -10 8 -34 15 -51 15 -18 0 -33 5 -33 10 0 6 -18 10 -40 10 -22 0 -40 5 -40 10 0 6 -13 10 -29 10 -16 0 -36 7 -45 15 -8 8 -32 15 -55 15 -23 0 -41 5 -41 10 0 6 -15 10 -32 10 -18 0 -42 7 -52 15 -11 8 -32 15 -47 15 -15 0 -31 5 -34 10 -3 6 -22 10 -41 10 -19 0 -34 5 -34 10 0 6 -15 10 -33 10 -18 0 -42 7 -53 15 -10 8 -34 15 -51 15 -18 0 -33 5 -33 10 0 6 -15 10 -34 10 -19 0 -37 4 -41 9 -3 6 -26 13 -50 17 -25 3 -45 10 -45 15 0 5 -16 9 -35 9 -19 0 -35 5 -35 10 0 6 -15 10 -33 10 -18 0 -42 7 -53 15 -10 8 -34 15 -51 15 -18 0 -33 5 -33 10 0 6 -18 10 -39 10 -22 0 -43 5 -46 10 -3 6 -16 10 -29 10 -12 0 -31 7 -42 15 -10 8 -36 15 -56 15 -21 0 -38 5 -38 10 0 6 -15 10 -34 10 -18 0 -39 7 -46 15 -7 9 -29 15 -51 15 -22 0 -39 5 -39 10 0 6 -15 10 -34 10 -19 0 -38 5 -41 10 -3 6 -19 10 -34 10 -15 0 -36 7 -47 15 -10 8 -34 15 -51 15 -18 0 -33 5 -33 10 0 6 -18 10 -40 10 -22 0 -40 4 -40 9 0 6 -20 13 -45 17 -25 3 -45 10 -45 15 0 5 -15 9 -34 9 -19 0 -38 5 -41 10 -3 6 -21 10 -40 10 -18 0 -40 7 -49 15 -8 8 -28 15 -45 15 -17 0 -31 5 -31 10 0 6 -18 10 -39 10 -22 0 -42 4 -45 9 -3 4 -24 11 -46 15 -22 3 -40 11 -40 16 0 6 -18 10 -40 10 -22 0 -40 5 -40 10 0 6 -15 10 -34 10 -18 0 -39 7 -46 15 -14 17 -130 22 -130 5z"></path></g></g><g id="l5yhvHVogkdLQ0BhyL7Qr6" fill="rgb(8,8,8)" style="transform: none;"><g><path id="pbq3t0OVO" d="M1050 4100 c0 -5 -11 -12 -25 -16 -14 -3 -25 -10 -25 -15 0 -5 -9 -9 -21 -9 -19 0 -49 -21 -49 -35 0 -3 -9 -16 -20 -28 -11 -11 -23 -38 -26 -59 -4 -21 -10 -38 -15 -38 -5 0 -9 -18 -9 -40 0 -22 -4 -40 -10 -40 -5 0 -10 -15 -10 -34 0 -19 -7 -41 -15 -50 -8 -8 -15 -31 -15 -50 0 -20 -4 -36 -10 -36 -5 0 -10 -18 -10 -40 0 -22 -4 -40 -9 -40 -5 0 -11 -18 -15 -40 -3 -22 -11 -40 -16 -40 -6 0 -10 -20 -10 -45 0 -25 -4 -45 -10 -45 -5 0 -10 -16 -10 -35 0 -22 -6 -38 -15 -41 -10 -4 -15 -20 -15 -44 0 -22 -4 -42 -10 -45 -11 -7 -14 -45 -4 -45 17 0 43 49 44 81 0 29 7 40 40 65 50 37 56 52 30 79 -26 28 -26 31 10 72 17 18 30 42 30 53 0 18 43 60 62 60 5 0 21 -9 36 -20 25 -18 30 -19 67 -5 22 8 48 14 57 15 9 0 30 14 47 30 26 26 34 29 51 20 16 -9 32 -7 68 6 26 10 55 24 65 32 19 16 24 14 41 -19 17 -34 42 -46 65 -32 15 9 23 8 41 -4 19 -13 29 -14 52 -5 18 6 38 8 52 2 12 -4 34 -6 48 -3 26 5 62 -12 105 -50 19 -17 25 -18 38 -7 13 11 18 10 30 -6 46 -64 40 -62 70 -31 34 33 40 33 99 2 26 -14 54 -25 62 -25 8 0 22 -4 32 -9 46 -24 80 -35 107 -35 17 -1 30 -6 30 -13 0 -7 11 -20 24 -29 22 -16 26 -16 51 -1 19 12 30 13 38 5 10 -10 58 -22 132 -33 35 -6 50 -19 50 -45 0 -8 10 -21 21 -28 19 -12 24 -11 49 13 16 15 30 22 34 17 3 -6 20 -13 37 -17 17 -4 33 -13 36 -21 8 -22 44 -30 150 -34 12 0 25 -5 28 -10 3 -6 13 -10 22 -10 8 0 28 -10 45 -21 25 -18 33 -20 53 -9 20 11 31 8 86 -19 56 -28 65 -30 78 -16 13 13 18 12 41 -10 l27 -26 26 21 c26 21 27 21 27 2 0 -11 7 -25 15 -32 8 -7 15 -21 15 -31 0 -23 3 -23 39 -4 26 13 30 13 47 -6 11 -12 31 -30 46 -40 23 -17 30 -18 47 -7 18 11 25 8 62 -30 23 -23 47 -43 53 -44 6 0 18 -1 26 -2 8 -1 17 -12 20 -25 3 -14 25 -39 50 -56 46 -33 66 -75 57 -124 -3 -14 1 -34 9 -46 11 -17 12 -33 3 -86 -7 -35 -20 -75 -29 -89 -14 -19 -15 -29 -6 -43 8 -13 7 -24 -5 -45 -15 -26 -14 -29 10 -61 l25 -33 -37 -34 c-20 -19 -37 -40 -37 -46 0 -7 -14 -27 -31 -44 -30 -31 -30 -34 -16 -55 14 -19 14 -25 2 -49 -8 -15 -26 -41 -40 -58 -23 -27 -24 -34 -13 -52 11 -18 10 -23 -4 -31 -10 -5 -20 -25 -24 -44 -3 -20 -10 -38 -15 -41 -5 -3 -9 -21 -9 -40 0 -19 -6 -49 -13 -67 -13 -32 -13 -66 -1 -144 5 -33 3 -43 -8 -43 -37 0 -70 -76 -62 -141 5 -39 4 -49 -8 -49 -8 0 -22 -8 -31 -17 -26 -30 -77 -134 -77 -158 0 -13 -5 -27 -11 -30 -6 -4 -8 -13 -5 -20 5 -14 -28 -55 -44 -55 -13 0 -40 -67 -34 -83 2 -7 -9 -20 -26 -30 -21 -13 -30 -26 -30 -43 0 -14 -4 -23 -9 -19 -5 3 -19 -8 -31 -25 -16 -23 -29 -30 -54 -30 -27 0 -35 -6 -49 -35 -9 -19 -20 -35 -24 -35 -5 1 -21 11 -37 24 -34 28 -50 23 -99 -31 l-29 -33 -26 20 c-17 14 -29 17 -36 10 -17 -17 -34 -11 -53 20 -15 26 -22 30 -46 24 -21 -4 -32 0 -47 18 -15 19 -22 21 -37 12 -15 -9 -22 -5 -44 23 -17 21 -29 28 -32 21 -2 -7 -22 -22 -44 -34 l-39 -21 -18 24 c-13 18 -26 23 -49 21 -26 -2 -32 1 -33 18 -2 31 -12 44 -35 44 -11 0 -49 7 -84 16 -46 12 -68 13 -82 6 -15 -9 -25 -4 -55 25 l-37 36 -25 -21 c-26 -20 -26 -20 -63 -1 -33 17 -38 17 -54 3 -10 -9 -27 -13 -44 -10 -36 7 -85 54 -85 82 0 36 -59 47 -91 18 -15 -13 -24 -14 -49 -6 -16 6 -30 9 -30 8 0 -2 -16 11 -35 29 -29 26 -43 32 -72 29 -20 -1 -43 -9 -51 -18 -14 -13 -18 -12 -44 9 -27 23 -48 30 -72 26 -10 -2 -46 29 -46 40 0 4 6 14 14 21 13 13 32 14 123 5 37 -4 46 0 74 29 20 21 29 38 25 49 -4 10 4 26 23 43 46 43 71 102 69 164 -2 67 36 168 75 198 15 12 34 35 42 51 14 27 14 32 -7 68 l-23 40 26 28 c37 41 49 72 48 123 0 25 2 71 6 102 6 48 5 59 -9 64 -9 3 -16 16 -16 29 0 26 -65 82 -75 65 -8 -13 -38 -13 -52 1 -7 7 -35 20 -63 30 -57 20 -139 16 -177 -8 -12 -8 -40 -13 -62 -12 -58 4 -89 -26 -84 -83 4 -51 -71 -322 -98 -357 -11 -13 -19 -31 -19 -41 0 -22 41 -60 66 -60 10 0 29 -3 40 -6 21 -5 21 -7 6 -37 -8 -18 -20 -39 -27 -47 -7 -8 -15 -37 -18 -64 -6 -56 -19 -68 -59 -54 -33 12 -58 -3 -58 -34 0 -11 -13 -26 -30 -36 -16 -9 -30 -20 -30 -24 0 -4 14 -21 30 -38 17 -18 33 -45 37 -61 6 -30 40 -48 63 -34 7 4 27 -7 46 -26 l34 -33 -26 -27 c-36 -37 -96 -32 -137 12 l-29 31 -22 -21 c-17 -16 -30 -20 -50 -15 -24 6 -25 9 -20 44 8 46 -13 58 -50 29 -15 -12 -27 -15 -31 -9 -3 5 -19 10 -35 10 -18 0 -45 14 -76 40 -27 22 -52 40 -56 40 -13 0 -58 98 -58 127 0 23 -8 31 -40 46 -32 15 -40 24 -40 46 0 15 -5 32 -12 39 -7 7 -11 37 -10 72 0 32 -4 62 -9 66 -6 4 0 18 17 35 l27 28 -24 46 c-13 25 -30 45 -36 45 -8 0 -13 13 -13 33 0 17 -3 48 -6 68 -5 29 -2 41 14 57 13 13 17 24 11 33 -5 8 -9 26 -9 40 0 14 -9 34 -20 44 -19 18 -20 17 -20 -7 0 -14 -7 -31 -15 -38 -9 -7 -15 -29 -15 -51 0 -22 -4 -39 -10 -39 -5 0 -10 -15 -10 -34 0 -19 -5 -38 -10 -41 -6 -3 -10 -19 -10 -34 0 -15 -7 -36 -15 -47 -8 -10 -15 -34 -15 -51 0 -18 -4 -33 -10 -33 -5 0 -10 -13 -10 -29 0 -16 -7 -42 -15 -57 -8 -16 -15 -41 -15 -56 0 -16 -4 -28 -10 -28 -5 0 -10 -15 -10 -34 0 -19 -5 -38 -10 -41 -6 -3 -10 -19 -10 -34 0 -15 -7 -36 -15 -47 -8 -10 -15 -34 -15 -51 0 -18 -4 -33 -10 -33 -5 0 -10 -18 -10 -39 0 -22 -4 -42 -9 -45 -5 -4 -12 -24 -16 -46 -4 -22 -11 -40 -16 -40 -5 0 -9 -18 -9 -40 0 -22 -4 -40 -10 -40 -5 0 -10 -15 -10 -34 0 -18 -7 -39 -15 -46 -17 -14 -22 -130 -5 -130 5 0 12 -11 16 -25 3 -14 10 -25 15 -25 5 0 9 -9 9 -21 0 -19 21 -49 35 -49 3 0 16 -9 28 -20 11 -11 38 -23 59 -26 21 -4 38 -10 38 -15 0 -5 18 -9 40 -9 22 0 40 -4 40 -10 0 -5 15 -10 34 -10 19 0 41 -7 50 -15 8 -8 28 -15 45 -15 16 0 33 -5 36 -10 3 -6 21 -10 40 -10 19 0 36 -4 39 -9 3 -4 24 -11 46 -15 22 -3 40 -11 40 -16 0 -6 20 -10 45 -10 25 0 45 -4 45 -10 0 -5 16 -10 35 -10 22 0 38 -6 41 -15 4 -10 20 -15 44 -15 22 0 42 -4 45 -10 3 -5 22 -10 41 -10 19 0 34 -4 34 -9 0 -4 19 -11 42 -14 24 -3 44 -11 46 -16 2 -6 21 -11 43 -11 21 0 39 -4 39 -10 0 -5 13 -10 29 -10 16 0 42 -7 57 -15 16 -8 41 -15 57 -15 15 0 27 -4 27 -10 0 -5 16 -10 35 -10 19 0 35 -4 35 -10 0 -5 15 -10 33 -10 18 0 42 -7 53 -15 10 -8 34 -15 52 -15 17 0 32 -4 32 -10 0 -5 18 -10 39 -10 22 0 43 -5 46 -10 3 -6 14 -10 23 -10 9 0 30 -7 46 -15 15 -8 44 -15 62 -15 19 0 34 -4 34 -10 0 -5 15 -10 34 -10 18 0 39 -7 46 -15 7 -8 27 -15 46 -15 18 0 36 -4 39 -10 3 -5 21 -10 40 -10 19 0 37 -4 40 -10 3 -5 16 -10 28 -10 12 0 35 -7 51 -15 15 -8 41 -15 57 -15 16 0 29 -4 29 -10 0 -5 13 -10 29 -10 16 0 42 -7 57 -15 16 -8 41 -15 57 -15 15 0 27 -4 27 -10 0 -5 15 -10 34 -10 19 0 38 -5 41 -10 3 -6 19 -10 34 -10 15 0 36 -7 47 -15 10 -8 34 -15 52 -15 17 0 32 -4 32 -10 0 -5 18 -10 39 -10 22 0 42 -4 45 -9 4 -5 24 -12 46 -16 22 -4 40 -11 40 -16 0 -5 18 -9 40 -9 22 0 40 -4 40 -10 0 -5 15 -10 34 -10 18 0 39 -7 46 -15 14 -17 130 -22 130 -5 0 5 11 12 25 16 14 3 25 10 25 15 0 5 9 9 21 9 19 0 49 21 49 35 0 3 8 15 19 26 10 11 21 38 25 60 3 21 11 39 16 39 6 0 10 18 10 40 0 22 5 40 10 40 6 0 10 15 10 33 0 18 7 42 15 53 8 10 15 34 15 52 0 17 5 32 10 32 6 0 10 18 10 40 0 22 5 40 10 40 6 0 10 13 10 29 0 16 7 36 15 45 8 8 15 32 15 55 0 23 5 41 10 41 6 0 10 15 10 33 0 17 7 41 15 51 8 11 15 32 15 48 0 15 5 28 10 28 6 0 10 18 10 40 0 22 5 40 10 40 6 0 10 15 10 33 0 18 7 42 15 53 8 10 15 34 15 52 0 17 5 32 10 32 6 0 10 15 10 34 0 19 4 37 9 40 5 4 12 24 16 46 4 22 11 42 16 46 5 3 9 21 9 40 0 19 5 34 10 34 6 0 10 17 10 39 0 22 6 44 15 51 8 7 15 28 15 46 0 19 5 34 10 34 6 0 10 18 10 39 0 22 4 43 10 46 6 3 10 16 10 29 0 12 7 31 15 42 8 10 15 36 15 57 0 20 5 37 10 37 6 0 10 15 10 34 0 18 7 39 15 46 9 7 15 29 15 51 0 22 5 39 10 39 6 0 10 15 10 34 0 19 5 38 10 41 6 3 10 19 10 34 0 15 7 36 15 47 8 10 15 34 15 52 0 17 5 32 10 32 6 0 10 15 10 34 0 19 4 37 9 41 6 3 13 26 17 50 3 25 10 45 15 45 5 0 9 15 9 34 0 19 5 38 10 41 6 3 10 21 10 39 0 19 7 39 15 46 8 7 15 28 15 46 0 19 5 34 10 34 6 0 10 18 10 39 0 22 4 42 9 45 4 3 11 24 15 46 3 22 11 40 16 40 6 0 10 18 10 40 0 22 5 40 10 40 6 0 10 15 10 34 0 18 7 39 15 46 17 14 22 130 5 130 -5 0 -12 11 -16 25 -3 14 -10 25 -15 25 -5 0 -9 9 -9 21 0 19 -21 49 -35 49 -3 0 -15 9 -27 19 -11 11 -38 23 -59 26 -22 4 -39 11 -39 16 0 5 -18 9 -40 9 -22 0 -40 5 -40 10 0 6 -15 10 -33 10 -18 0 -42 7 -53 15 -10 8 -34 15 -51 15 -18 0 -33 5 -33 10 0 6 -18 10 -40 10 -22 0 -40 5 -40 10 0 6 -13 10 -29 10 -16 0 -36 7 -45 15 -8 8 -32 15 -55 15 -23 0 -41 5 -41 10 0 6 -15 10 -32 10 -18 0 -42 7 -52 15 -11 8 -32 15 -47 15 -15 0 -31 5 -34 10 -3 6 -22 10 -41 10 -19 0 -34 5 -34 10 0 6 -15 10 -33 10 -18 0 -42 7 -53 15 -10 8 -34 15 -51 15 -18 0 -33 5 -33 10 0 6 -15 10 -34 10 -19 0 -37 4 -41 9 -3 6 -26 13 -50 17 -25 3 -45 10 -45 15 0 5 -16 9 -35 9 -19 0 -35 5 -35 10 0 6 -15 10 -33 10 -18 0 -42 7 -53 15 -10 8 -34 15 -51 15 -18 0 -33 5 -33 10 0 6 -18 10 -39 10 -22 0 -43 5 -46 10 -3 6 -16 10 -29 10 -12 0 -31 7 -42 15 -10 8 -36 15 -56 15 -21 0 -38 5 -38 10 0 6 -15 10 -34 10 -18 0 -39 7 -46 15 -7 9 -29 15 -51 15 -22 0 -39 5 -39 10 0 6 -15 10 -34 10 -19 0 -38 5 -41 10 -3 6 -19 10 -34 10 -15 0 -36 7 -47 15 -10 8 -34 15 -51 15 -18 0 -33 5 -33 10 0 6 -18 10 -40 10 -22 0 -40 4 -40 9 0 6 -20 13 -45 17 -25 3 -45 10 -45 15 0 5 -15 9 -34 9 -19 0 -38 5 -41 10 -3 6 -21 10 -40 10 -18 0 -40 7 -49 15 -8 8 -28 15 -45 15 -17 0 -31 5 -31 10 0 6 -18 10 -39 10 -22 0 -42 4 -45 9 -3 4 -24 11 -46 15 -22 3 -40 11 -40 16 0 6 -18 10 -40 10 -22 0 -40 5 -40 10 0 6 -15 10 -34 10 -18 0 -39 7 -46 15 -14 17 -130 22 -130 5z"></path><path id="pJNxKrDk2" d="M2386 3223 c-3 -4 -37 -8 -74 -10 -96 -3 -112 -8 -150 -48 -19 -19 -38 -35 -43 -35 -5 0 -9 -6 -9 -12 -1 -20 -90 -69 -119 -67 -14 1 -48 -8 -75 -21 -40 -18 -53 -20 -68 -11 -15 9 -18 9 -16 -1 1 -7 -8 -28 -22 -46 -18 -24 -29 -31 -44 -26 -17 5 -19 4 -8 -7 19 -20 16 -26 -43 -59 -61 -35 -78 -58 -69 -94 3 -13 1 -27 -5 -30 -15 -10 -14 -32 3 -69 8 -18 17 -40 20 -50 4 -13 12 -16 25 -12 13 4 34 -4 61 -24 38 -28 47 -29 122 -28 77 2 81 4 109 35 16 18 29 40 29 50 0 9 18 27 40 40 33 18 44 21 61 11 14 -7 19 -17 16 -31 -7 -24 2 -50 14 -42 5 3 6 16 3 30 -10 39 21 66 71 62 39 -3 40 -2 45 32 5 37 32 52 53 31 6 -6 25 -11 42 -11 28 0 34 -6 67 -74 l37 -74 -19 -25 c-13 -16 -18 -32 -13 -44 7 -20 53 -62 69 -63 5 0 9 -14 8 -30 -1 -17 2 -33 7 -36 5 -3 9 -13 9 -22 0 -17 103 -112 120 -112 5 0 12 5 15 10 3 6 21 10 39 10 17 0 36 4 42 9 5 5 25 14 46 20 37 12 128 99 128 123 0 7 -14 36 -30 63 -23 39 -30 62 -30 107 0 40 -7 71 -25 107 -30 59 -40 67 -61 50 -19 -15 -14 -22 -94 128 -52 98 -60 120 -60 167 0 63 -8 71 -75 81 -29 4 -61 17 -78 31 -28 24 -57 31 -71 17z"></path><path id="peSQqcDLf" d="M650 3133 c0 -16 -7 -41 -15 -57 -8 -15 -15 -41 -15 -57 0 -16 -4 -29 -10 -29 -5 0 -10 -15 -10 -33 0 -18 -5 -38 -12 -45 -6 -6 -9 -14 -6 -18 10 -9 48 15 48 32 0 8 7 25 15 37 14 22 14 55 0 77 -4 6 -2 16 3 23 12 15 20 97 10 97 -5 0 -8 -12 -8 -27z"></path><path id="p11RkGC6VM" d="M550 2777 c0 -15 -4 -27 -10 -27 -5 0 -10 -15 -10 -33 0 -18 -7 -42 -15 -53 -8 -10 -15 -34 -15 -51 0 -18 -4 -33 -10 -33 -5 0 -10 -18 -10 -39 0 -22 -4 -42 -9 -45 -5 -4 -12 -24 -16 -46 -4 -22 -11 -40 -16 -40 -5 0 -9 -4 -9 -10 0 -5 6 -10 14 -10 14 0 66 92 66 117 0 7 5 13 11 13 8 0 10 15 7 45 -4 35 -1 48 13 61 10 9 21 25 24 35 4 11 12 19 20 19 7 0 16 14 20 31 6 27 2 36 -24 63 l-31 31 0 -28z"></path><path id="p4XrNNn8H" d="M2372 1979 c-12 -22 -22 -54 -22 -71 0 -30 60 -170 84 -198 8 -8 19 -33 25 -55 14 -49 53 -95 81 -95 14 0 20 -7 20 -21 0 -19 4 -21 36 -16 23 4 47 1 65 -8 15 -8 60 -19 100 -25 39 -6 75 -13 80 -16 5 -3 9 -20 9 -39 0 -27 5 -34 25 -39 33 -8 75 19 75 49 0 17 9 25 43 35 23 7 63 19 89 27 67 20 88 51 88 127 0 101 -3 103 -177 108 -139 4 -153 6 -233 38 -103 40 -189 99 -262 180 -68 75 -94 79 -126 19z"></path></g></g><g id="l6fkpkTpxxjl0eDPwUT5KuH" fill="rgb(16,16,16)" style="transform: none;"><g><path id="pzlifP6G4" d="M1050 4100 c0 -5 -11 -12 -25 -16 -14 -3 -25 -10 -25 -15 0 -5 -9 -9 -21 -9 -19 0 -49 -21 -49 -35 0 -3 -9 -16 -20 -28 -11 -11 -23 -38 -26 -59 -4 -21 -10 -38 -15 -38 -5 0 -9 -18 -9 -40 0 -22 -4 -40 -10 -40 -5 0 -10 -15 -10 -34 0 -19 -7 -41 -15 -50 -8 -8 -15 -31 -15 -50 0 -20 -4 -36 -10 -36 -13 0 -13 -47 -1 -55 6 -3 21 7 35 22 18 19 23 34 19 53 -2 15 3 56 12 93 9 37 14 75 10 86 -7 22 2 31 75 84 28 20 48 44 53 64 9 29 13 31 68 37 33 4 68 15 81 25 23 19 23 19 61 -15 30 -28 41 -32 56 -25 14 8 30 5 61 -10 31 -15 45 -17 55 -9 22 18 81 1 132 -38 44 -33 53 -36 105 -34 50 3 62 -1 99 -28 36 -25 50 -30 79 -25 31 5 40 1 77 -35 48 -47 81 -57 122 -36 15 8 40 14 54 13 40 -3 33 17 -8 24 -20 3 -41 11 -48 18 -6 6 -26 11 -44 11 -18 0 -33 5 -33 10 0 6 -18 10 -40 10 -22 0 -40 4 -40 9 0 6 -20 13 -45 17 -25 3 -45 10 -45 15 0 5 -15 9 -34 9 -19 0 -38 5 -41 10 -3 6 -21 10 -40 10 -18 0 -40 7 -49 15 -8 8 -28 15 -45 15 -17 0 -31 5 -31 10 0 6 -18 10 -39 10 -22 0 -42 4 -45 9 -3 4 -24 11 -46 15 -22 3 -40 11 -40 16 0 6 -18 10 -40 10 -22 0 -40 5 -40 10 0 6 -15 10 -34 10 -18 0 -39 7 -46 15 -14 17 -130 22 -130 5z"></path><path id="pMg25cm0y" d="M2350 3741 c0 -22 13 -41 29 -41 9 0 21 -4 27 -8 5 -4 26 -14 47 -21 33 -11 41 -11 56 3 16 14 20 14 53 -3 24 -12 41 -15 52 -9 9 5 23 5 35 -2 29 -15 38 -12 15 5 -10 8 -34 15 -51 15 -18 0 -33 5 -33 10 0 6 -18 10 -39 10 -22 0 -43 5 -46 10 -3 6 -16 10 -29 10 -12 0 -31 7 -42 15 -21 16 -74 20 -74 6z"></path><path id="p1Hq0vysCA" d="M3195 3501 c-7 -12 34 -41 58 -41 10 0 28 -5 40 -12 12 -6 40 -15 62 -19 22 -4 56 -11 75 -16 19 -5 45 -7 58 -5 38 6 0 32 -47 32 -23 0 -41 5 -41 10 0 6 -15 10 -32 10 -18 0 -42 7 -52 15 -11 8 -32 15 -47 15 -15 0 -31 5 -34 10 -8 13 -32 13 -40 1z"></path><path id="p1DVicbwdK" d="M3692 3363 c15 -2 30 -12 33 -21 5 -16 33 -38 98 -79 22 -15 27 -24 25 -51 -2 -23 5 -42 25 -67 32 -41 32 -40 7 -72 -24 -31 -26 -65 -4 -98 13 -20 14 -30 4 -61 -14 -41 -7 -90 17 -116 13 -14 14 -23 5 -42 -9 -20 -7 -27 9 -42 10 -9 19 -23 19 -31 0 -7 9 -13 21 -13 16 0 19 -4 14 -17 -4 -10 -11 -42 -15 -71 -13 -75 -18 -89 -46 -117 -18 -18 -22 -30 -18 -54 5 -22 -2 -46 -25 -91 -25 -51 -29 -70 -25 -105 6 -39 3 -46 -30 -83 -47 -52 -65 -110 -53 -180 7 -45 6 -57 -9 -73 -14 -15 -15 -24 -6 -41 8 -18 11 -19 11 -5 1 9 6 17 11 17 6 0 10 15 10 34 0 18 7 39 15 46 9 7 15 29 15 51 0 22 5 39 10 39 6 0 10 15 10 34 0 19 5 38 10 41 6 3 10 19 10 34 0 15 7 36 15 47 8 10 15 34 15 52 0 17 5 32 10 32 6 0 10 15 10 34 0 19 4 37 9 41 6 3 13 26 17 50 3 25 10 45 15 45 5 0 9 15 9 34 0 19 5 38 10 41 6 3 10 21 10 39 0 19 7 39 15 46 8 7 15 28 15 46 0 19 5 34 10 34 6 0 10 18 10 39 0 22 4 42 9 45 4 3 11 24 15 46 3 22 11 40 16 40 6 0 10 18 10 40 0 22 5 40 10 40 6 0 10 15 10 34 0 18 7 39 15 46 17 14 22 130 5 130 -5 0 -12 11 -16 25 -3 14 -10 25 -15 25 -5 0 -9 9 -9 21 0 19 -21 49 -35 49 -3 0 -15 9 -27 19 -11 11 -38 23 -59 26 -22 4 -39 11 -39 16 0 5 -18 9 -40 9 -22 0 -40 5 -40 10 0 6 -15 10 -33 10 -18 0 -42 7 -53 15 -10 8 -30 14 -44 13 -24 -1 -24 -1 2 -5z"></path><path id="pqkq9GjxF" d="M703 3323 c-8 -3 -13 -21 -13 -43 0 -21 -4 -42 -10 -45 -12 -7 -14 -45 -2 -45 4 0 15 12 25 25 21 30 21 115 0 108z"></path><path id="p15f5IMQeI" d="M2289 3216 c-2 -2 -24 -6 -47 -9 -34 -3 -52 -13 -79 -41 -19 -20 -39 -36 -44 -36 -5 0 -9 -6 -9 -12 0 -7 -31 -31 -68 -52 -37 -22 -92 -56 -122 -76 -30 -20 -95 -56 -144 -79 -119 -57 -138 -77 -130 -133 15 -94 108 -208 171 -208 13 0 43 13 66 29 23 15 101 61 172 101 72 40 158 90 192 111 34 22 71 39 82 39 16 0 35 -29 84 -122 35 -68 90 -172 121 -231 37 -70 56 -117 54 -134 -4 -33 45 -74 64 -55 7 7 26 12 43 12 17 0 35 4 41 9 5 5 25 14 46 20 36 12 128 99 128 122 0 6 -13 35 -29 63 -91 164 -301 562 -301 573 0 14 -16 20 -128 49 -94 24 -142 43 -112 44 13 0 13 1 0 10 -15 10 -43 13 -51 6z"></path><path id="pLMWd1BsS" d="M1396 2403 c-22 -3 -52 -13 -67 -24 -15 -10 -33 -19 -41 -19 -8 0 -30 -17 -50 -37 -33 -34 -42 -58 -87 -215 -28 -97 -51 -183 -51 -190 0 -21 52 -66 80 -70 37 -5 36 -32 -3 -80 -25 -32 -36 -56 -40 -92 -6 -56 -19 -68 -59 -54 -34 12 -54 -1 -60 -38 -4 -25 69 -154 87 -154 6 0 20 -9 30 -20 40 -45 214 -62 254 -26 10 9 29 16 44 16 59 0 133 112 123 184 -5 31 0 56 19 101 13 33 25 78 25 101 0 44 13 93 35 135 8 14 18 53 24 87 5 33 15 70 20 81 20 37 13 123 -13 161 -13 19 -26 45 -30 58 -4 12 -14 22 -21 22 -8 0 -23 10 -34 22 -20 20 -114 60 -136 56 -5 -1 -28 -3 -49 -5z"></path><path id="pvv0fp8m1" d="M303 1924 c-7 -7 -13 -24 -13 -37 0 -14 -7 -38 -15 -53 -8 -16 -15 -41 -15 -56 0 -14 -6 -28 -12 -31 -7 -2 -9 -8 -5 -13 12 -13 39 9 60 49 16 31 17 42 7 71 -8 26 -8 40 0 56 14 26 10 33 -7 14z"></path><path id="p1A8vMzTL5" d="M208 1601 c-10 -20 -18 -50 -18 -64 0 -15 -4 -27 -10 -27 -5 0 -10 -17 -10 -38 0 -21 -5 -43 -12 -50 -19 -19 -2 -25 29 -10 15 7 36 28 45 47 9 19 22 37 29 41 7 5 9 19 4 39 -3 17 -6 33 -6 36 1 6 -28 65 -32 65 -1 0 -10 -18 -19 -39z"></path><path id="p1GjvcM07I" d="M3643 1570 c-43 -58 -58 -120 -32 -136 7 -4 -1 -19 -21 -39 -28 -29 -32 -38 -26 -68 6 -33 -8 -78 -36 -119 -10 -14 -10 -25 -1 -49 14 -37 1 -75 -31 -85 -12 -4 -21 -5 -22 -3 -1 2 -13 -11 -29 -29 -25 -30 -27 -38 -22 -97 4 -63 3 -66 -26 -91 -23 -19 -36 -24 -58 -19 -23 5 -30 3 -35 -12 -4 -10 -18 -33 -31 -51 l-25 -33 20 -34 21 -34 -25 -16 c-17 -11 -35 -14 -60 -9 -30 5 -40 2 -64 -21 -16 -16 -27 -32 -24 -37 11 -17 -7 -45 -40 -60 -31 -15 -35 -15 -62 3 -34 22 -64 24 -111 7 -29 -11 -38 -10 -61 4 -15 9 -46 26 -68 38 l-42 22 -30 -22 -31 -23 -36 32 c-31 27 -41 30 -74 25 -34 -5 -42 -2 -86 36 -35 31 -54 40 -70 36 -15 -4 -36 3 -60 19 -28 20 -44 24 -69 20 -23 -5 -43 -1 -67 13 -46 27 -96 37 -114 22 -17 -14 -74 -4 -82 15 -6 18 -103 38 -145 30 -27 -5 -38 -1 -61 20 -25 24 -31 26 -60 16 -26 -10 -38 -8 -65 6 -18 10 -30 23 -28 30 3 6 -10 22 -27 36 -26 19 -36 22 -54 14 -17 -7 -41 -5 -90 8 -38 9 -77 17 -88 16 -55 -4 -66 -2 -94 19 -26 18 -40 20 -84 16 -51 -6 -55 -4 -94 33 -27 25 -52 38 -70 39 -108 2 -120 4 -155 27 -21 14 -47 25 -58 25 -11 0 -20 4 -20 8 0 14 -54 40 -100 47 -25 4 -51 12 -58 18 -8 6 -46 11 -86 12 -55 0 -80 5 -102 20 -16 11 -40 22 -54 25 -16 3 -25 12 -25 24 0 12 -21 29 -64 52 -65 34 -78 34 -102 0 -9 -12 -77 31 -82 52 -3 12 -5 11 -6 -5 0 -13 -5 -23 -11 -23 -5 0 -10 -18 -10 -40 0 -22 -4 -40 -10 -40 -5 0 -10 -15 -10 -34 0 -18 -7 -39 -15 -46 -17 -14 -22 -130 -5 -130 5 0 12 -11 16 -25 3 -14 10 -25 15 -25 5 0 9 -9 9 -21 0 -19 21 -49 35 -49 3 0 16 -9 28 -20 11 -11 38 -23 59 -26 21 -4 38 -10 38 -15 0 -5 18 -9 40 -9 22 0 40 -4 40 -10 0 -5 15 -10 34 -10 19 0 41 -7 50 -15 8 -8 28 -15 45 -15 16 0 33 -4 36 -10 3 -5 21 -10 40 -10 19 0 36 -4 39 -9 3 -4 24 -11 46 -15 22 -3 40 -11 40 -16 0 -6 20 -10 45 -10 25 0 45 -4 45 -10 0 -5 16 -10 35 -10 22 0 38 -6 41 -15 4 -10 20 -15 44 -15 22 0 42 -4 45 -10 3 -5 22 -10 41 -10 19 0 34 -4 34 -9 0 -4 19 -11 42 -14 24 -3 44 -11 46 -16 2 -6 21 -11 43 -11 21 0 39 -4 39 -10 0 -5 13 -10 29 -10 16 0 42 -7 57 -15 16 -8 41 -15 57 -15 15 0 27 -4 27 -10 0 -5 16 -10 35 -10 19 0 35 -4 35 -10 0 -5 15 -10 33 -10 18 0 42 -7 53 -15 10 -8 34 -15 52 -15 17 0 32 -4 32 -10 0 -5 18 -10 39 -10 22 0 43 -4 46 -10 3 -5 14 -10 23 -10 9 0 30 -7 46 -15 15 -8 44 -15 62 -15 19 0 34 -4 34 -10 0 -5 15 -10 34 -10 18 0 39 -7 46 -15 7 -8 27 -15 46 -15 18 0 36 -4 39 -10 3 -5 21 -10 40 -10 19 0 37 -4 40 -10 3 -5 16 -10 28 -10 12 0 35 -7 51 -15 15 -8 41 -15 57 -15 16 0 29 -4 29 -10 0 -5 13 -10 29 -10 16 0 42 -7 57 -15 16 -8 41 -15 57 -15 15 0 27 -4 27 -10 0 -5 15 -10 34 -10 19 0 38 -4 41 -10 3 -5 19 -10 34 -10 15 0 36 -7 47 -15 10 -8 34 -15 52 -15 17 0 32 -4 32 -10 0 -5 18 -10 39 -10 22 0 42 -4 45 -9 4 -5 24 -12 46 -16 22 -4 40 -11 40 -16 0 -5 18 -9 40 -9 22 0 40 -4 40 -10 0 -5 15 -10 34 -10 18 0 39 -7 46 -15 14 -17 130 -22 130 -5 0 5 11 12 25 16 14 3 25 10 25 15 0 5 9 9 21 9 19 0 49 21 49 35 0 3 8 15 19 26 10 11 21 38 25 60 3 21 11 39 16 39 6 0 10 18 10 40 0 22 5 40 10 40 6 0 10 15 10 33 0 18 7 42 15 53 8 10 15 34 15 52 0 17 5 32 10 32 6 0 10 18 10 40 0 22 5 40 10 40 6 0 10 13 10 29 0 16 7 36 15 45 8 8 15 32 15 55 0 23 5 41 10 41 6 0 10 15 10 33 0 17 7 41 15 51 8 11 15 32 15 48 0 15 5 28 10 28 6 0 10 18 10 40 0 22 5 40 10 40 6 0 10 15 10 33 0 18 7 42 15 53 8 10 15 34 15 52 0 17 5 32 10 32 6 0 10 15 10 34 0 19 4 37 9 40 5 4 12 24 16 46 4 22 11 42 16 46 5 3 9 21 9 40 0 19 5 34 10 34 6 0 10 17 10 39 0 22 6 44 15 51 8 7 15 27 15 45 0 19 6 35 13 38 8 3 9 8 2 15 -7 7 -23 -8 -52 -48z"></path></g></g><g id="l222CULr7yFt4RuD1wGVWrt" fill="rgb(25,25,25)" style="transform: none;"><g><path id="pQv1QkOSz" d="M1301 4047 c-13 -17 -6 -24 38 -43 25 -11 37 -11 47 -3 10 8 25 9 53 2 22 -6 45 -7 53 -2 8 6 0 9 -24 9 -20 0 -39 4 -42 9 -3 4 -24 11 -46 15 -22 3 -40 11 -40 16 0 15 -26 12 -39 -3z"></path><path id="p9kmtoEg1" d="M2130 3811 c0 -16 39 -38 63 -36 12 1 28 3 35 4 6 0 12 6 12 11 0 6 -18 10 -40 10 -22 0 -40 5 -40 10 0 6 -7 10 -15 10 -8 0 -15 -4 -15 -9z"></path><path id="pLFco5n8P" d="M2556 3691 c-10 -15 38 -40 57 -30 11 6 24 6 36 -1 29 -15 38 -12 15 5 -10 8 -34 15 -51 15 -18 0 -33 5 -33 10 0 12 -17 13 -24 1z"></path><path id="pHXg1CVVM" d="M3876 3304 c-7 -19 10 -54 28 -54 12 0 86 -63 86 -74 0 -2 17 -33 37 -67 33 -55 38 -71 38 -126 0 -35 3 -63 8 -63 4 0 7 15 7 34 0 18 7 39 15 46 17 14 22 130 5 130 -5 0 -12 11 -16 25 -3 14 -10 25 -15 25 -5 0 -9 9 -9 21 0 19 -21 49 -35 49 -3 0 -15 9 -27 19 -11 11 -38 23 -59 26 -22 4 -39 11 -39 16 0 15 -17 10 -24 -7z"></path><path id="pxCN4pALs" d="M2240 3169 c-118 -56 -279 -147 -345 -194 -16 -12 -70 -41 -119 -65 -119 -56 -138 -76 -130 -132 15 -94 108 -208 171 -208 13 0 43 13 66 29 23 15 101 61 172 101 72 40 158 90 192 111 34 22 71 39 82 39 16 0 35 -29 84 -122 35 -68 90 -172 121 -231 37 -70 56 -117 54 -134 -4 -33 45 -74 64 -55 7 7 26 12 43 12 17 0 35 4 41 9 5 5 25 14 46 20 36 12 128 99 128 122 0 6 -13 35 -29 63 -91 164 -301 562 -301 573 0 14 -14 19 -130 50 -133 36 -157 38 -210 12z"></path><path id="pzqZtR6Og" d="M3993 2698 c-32 -38 -71 -210 -44 -194 6 4 11 22 11 40 0 19 7 39 15 46 8 7 15 27 15 45 0 19 5 35 11 37 6 2 10 12 8 22 -4 17 -6 17 -16 4z"></path><path id="pmWXrYMuC" d="M3722 1780 c-12 -13 -22 -36 -22 -52 0 -15 0 -30 0 -33 0 -3 3 -6 7 -7 4 -2 10 12 14 29 3 18 12 40 19 48 22 26 5 40 -18 15z"></path><path id="p10uQVmrKs" d="M141 1363 c0 -13 -5 -23 -11 -23 -5 0 -10 -18 -10 -40 0 -22 -4 -40 -10 -40 -5 0 -10 -15 -10 -34 0 -18 -7 -39 -15 -46 -17 -14 -22 -130 -5 -130 5 0 12 -11 16 -25 3 -14 10 -25 15 -25 5 0 9 -9 9 -21 0 -19 21 -49 35 -49 3 0 16 -9 28 -20 11 -11 38 -23 59 -26 21 -4 38 -10 38 -15 0 -5 18 -9 40 -9 22 0 40 -4 40 -10 0 -5 15 -10 34 -10 19 0 41 -7 50 -15 8 -8 28 -15 45 -15 16 0 33 -4 36 -10 3 -5 21 -10 40 -10 19 0 36 -4 39 -9 3 -4 24 -11 46 -15 22 -3 40 -11 40 -16 0 -6 20 -10 45 -10 25 0 45 -4 45 -10 0 -5 16 -10 35 -10 22 0 38 -6 41 -15 4 -10 20 -15 44 -15 22 0 42 -4 45 -10 3 -5 22 -10 41 -10 19 0 34 -4 34 -9 0 -4 19 -11 42 -14 24 -3 44 -11 46 -16 2 -6 21 -11 43 -11 21 0 39 -4 39 -10 0 -5 13 -10 29 -10 16 0 42 -7 57 -15 16 -8 41 -15 57 -15 15 0 27 -4 27 -10 0 -5 16 -10 35 -10 19 0 35 -4 35 -10 0 -5 15 -10 33 -10 18 0 42 -7 53 -15 10 -8 34 -15 52 -15 17 0 32 -4 32 -10 0 -5 18 -10 39 -10 22 0 43 -4 46 -10 3 -6 14 -10 23 -10 9 0 30 -7 46 -15 15 -8 44 -15 62 -15 19 0 34 -4 34 -10 0 -5 15 -10 34 -10 18 0 39 -7 46 -15 7 -8 27 -15 46 -15 18 0 36 -5 39 -10 3 -6 21 -10 40 -10 19 0 37 -4 40 -10 3 -5 16 -10 28 -10 12 0 35 -7 51 -15 15 -8 41 -15 57 -15 16 0 29 -4 29 -10 0 -5 13 -10 29 -10 16 0 42 -7 57 -15 16 -8 41 -15 57 -15 15 0 27 -4 27 -10 0 -5 15 -10 34 -10 19 0 38 -4 41 -10 3 -5 19 -10 34 -10 15 0 36 -7 47 -15 10 -8 34 -15 52 -15 17 0 32 -4 32 -10 0 -5 18 -10 39 -10 22 0 42 -4 45 -9 4 -5 24 -12 46 -16 22 -4 40 -11 40 -16 0 -5 18 -9 40 -9 22 0 40 -4 40 -10 0 -5 15 -10 34 -10 18 0 39 -7 46 -15 14 -17 130 -22 130 -5 0 5 11 12 25 16 14 3 25 10 25 15 0 5 9 9 21 9 19 0 49 21 49 35 0 3 8 15 19 26 10 11 21 38 25 60 3 21 11 39 16 39 6 0 10 18 10 40 0 22 5 40 10 40 6 0 10 15 10 33 0 18 7 42 15 53 8 10 15 34 15 52 0 17 5 32 10 32 6 0 10 18 10 39 0 22 4 41 8 43 10 3 24 78 15 78 -9 0 -32 -32 -43 -58 -7 -15 -6 -30 1 -43 14 -27 4 -53 -34 -90 -51 -48 -75 -56 -185 -62 l-103 -6 -32 32 c-27 27 -39 32 -82 33 -27 1 -66 6 -85 12 -96 29 -184 50 -194 47 -6 -2 -34 -6 -62 -9 -43 -5 -56 -3 -87 19 -33 21 -63 32 -105 34 -7 1 -11 5 -8 10 11 18 -44 55 -87 57 -23 2 -65 12 -92 24 -29 13 -73 23 -107 24 -42 1 -62 6 -80 22 -13 12 -29 19 -36 17 -7 -3 -29 3 -48 12 -19 9 -65 18 -102 20 -37 2 -87 11 -111 20 -24 9 -50 14 -57 11 -22 -8 -73 14 -68 29 10 24 -38 39 -128 41 -77 2 -91 5 -122 29 -32 24 -39 26 -69 16 -38 -13 -66 -6 -85 21 -21 29 -72 51 -104 44 -36 -7 -116 22 -159 58 -25 21 -37 25 -67 20 -23 -3 -58 2 -92 13 -41 14 -63 16 -87 9 -29 -8 -39 -4 -85 28 -42 28 -66 37 -116 42 -43 5 -74 15 -95 30 -45 33 -93 55 -110 48 -27 -10 -67 14 -67 40 0 17 -10 31 -34 46 -19 11 -37 29 -39 38 -3 12 -5 11 -6 -5z"></path><path id="pYU8nalC0" d="M3471 931 c-12 -16 -21 -33 -21 -39 0 -5 -7 -15 -15 -22 -21 -18 -19 -53 5 -68 18 -11 20 -10 20 15 0 16 7 37 15 47 8 11 15 32 15 48 0 15 5 28 10 28 6 0 10 5 10 10 0 19 -19 10 -39 -19z"></path></g></g><g id="l5nf6aEjqbqrgxZ0zlK5vAO" fill="rgb(33,33,33)" style="transform: none;"><g><path id="ptyRx0yFr" d="M3994 3244 c13 -30 26 -44 39 -44 17 0 19 -5 14 -37 -4 -21 -11 -39 -16 -41 -5 -2 0 -20 12 -40 16 -27 22 -53 22 -99 0 -35 3 -63 8 -63 4 0 7 15 7 34 0 18 7 39 15 46 17 14 22 130 5 130 -5 0 -12 11 -16 25 -3 14 -10 25 -15 25 -5 0 -9 9 -9 21 0 22 -22 49 -39 49 -6 0 -11 3 -11 8 0 4 -8 12 -18 19 -17 10 -17 8 2 -33z"></path><path id="ptKhQccbc" d="M1396 2403 c-22 -3 -52 -13 -67 -24 -15 -10 -33 -19 -41 -19 -8 0 -30 -17 -50 -37 -33 -34 -42 -58 -87 -215 -28 -97 -51 -183 -51 -190 0 -21 53 -68 76 -68 11 0 28 -6 38 -13 17 -12 17 -17 -5 -97 -30 -108 -66 -139 -132 -117 -32 11 -53 -3 -59 -39 -4 -25 69 -154 87 -154 6 0 20 -9 30 -20 25 -27 110 -49 176 -45 41 2 67 11 100 33 66 45 87 72 103 134 8 30 29 86 46 122 20 41 36 93 41 134 9 78 17 109 35 137 7 11 17 48 23 82 5 34 15 71 20 82 20 37 13 123 -13 161 -13 19 -26 45 -30 58 -4 12 -14 22 -21 22 -8 0 -23 10 -34 22 -20 20 -114 60 -136 56 -5 -1 -28 -3 -49 -5z"></path><path id="pgnQaMKV1" d="M3760 1913 c0 -9 -7 -25 -17 -35 -13 -14 -14 -23 -5 -40 8 -18 11 -19 11 -5 1 9 5 17 10 17 5 0 11 18 13 40 2 22 0 40 -4 40 -5 0 -8 -8 -8 -17z"></path><path id="p1AoTmgaLq" d="M100 1227 c0 -19 -7 -40 -15 -47 -17 -14 -22 -130 -5 -130 5 0 12 -11 16 -25 3 -14 10 -25 15 -25 5 0 9 -9 9 -21 0 -19 21 -49 35 -49 3 0 16 -9 28 -20 11 -11 38 -23 59 -26 21 -4 38 -10 38 -15 0 -5 18 -9 40 -9 22 0 40 -4 40 -10 0 -5 15 -10 34 -10 19 0 41 -7 50 -15 8 -8 28 -15 45 -15 16 0 33 -4 36 -10 3 -5 21 -10 40 -10 19 0 36 -4 39 -9 3 -4 24 -11 46 -15 22 -3 40 -11 40 -16 0 -6 20 -10 45 -10 25 0 45 -4 45 -10 0 -5 16 -10 35 -10 22 0 38 -6 41 -15 4 -10 20 -15 44 -15 22 0 42 -4 45 -10 3 -5 22 -10 41 -10 19 0 34 -4 34 -9 0 -4 19 -11 42 -14 24 -3 44 -11 46 -16 2 -6 21 -11 43 -11 21 0 39 -4 39 -10 0 -5 13 -10 29 -10 16 0 42 -7 57 -15 16 -8 41 -15 57 -15 15 0 27 -4 27 -10 0 -5 16 -10 35 -10 19 0 35 -4 35 -10 0 -5 15 -10 33 -10 18 0 42 -7 53 -15 10 -8 34 -15 52 -15 17 0 32 -4 32 -10 0 -5 18 -10 39 -10 22 0 43 -4 46 -10 3 -5 14 -10 23 -10 9 0 30 -7 46 -15 15 -8 44 -15 62 -15 19 0 34 -4 34 -10 0 -5 15 -10 34 -10 18 0 39 -7 46 -15 7 -8 27 -15 46 -15 18 0 36 -4 39 -10 3 -5 21 -10 40 -10 19 0 37 -4 40 -10 3 -6 16 -10 28 -10 12 0 35 -7 51 -15 15 -8 41 -15 57 -15 16 0 29 -4 29 -10 0 -5 13 -10 29 -10 16 0 42 -7 57 -15 16 -8 41 -15 57 -15 15 0 27 -4 27 -10 0 -5 15 -10 34 -10 19 0 38 -4 41 -10 3 -5 19 -10 34 -10 15 0 36 -7 47 -15 10 -8 34 -15 52 -15 17 0 32 -4 32 -10 0 -5 18 -10 39 -10 22 0 42 -4 45 -9 4 -5 24 -12 46 -16 22 -4 40 -11 40 -16 0 -5 18 -9 40 -9 22 0 40 -4 40 -10 0 -5 15 -10 34 -10 18 0 39 -7 46 -15 14 -17 130 -22 130 -5 0 5 11 12 25 16 14 3 25 10 25 15 0 5 9 9 21 9 19 0 49 21 49 35 0 3 8 15 19 26 10 11 21 38 25 60 3 21 11 39 16 39 6 0 10 18 10 40 0 22 5 40 10 40 6 0 10 15 10 33 0 18 7 42 15 53 8 10 15 34 15 52 0 17 5 32 10 32 6 0 10 18 10 39 0 22 4 41 8 43 10 3 24 78 15 78 -9 0 -32 -32 -43 -58 -7 -15 -6 -30 1 -43 5 -11 7 -29 4 -40 -9 -28 -64 -78 -107 -98 -26 -12 -34 -21 -27 -28 7 -7 -2 -15 -30 -27 -35 -13 -48 -14 -89 -4 -26 7 -54 20 -62 29 -15 16 -65 23 -258 34 -78 4 -232 46 -232 62 0 7 -12 19 -28 27 -24 13 -30 12 -49 -4 -30 -24 -85 -12 -127 28 -20 20 -68 43 -140 68 -105 36 -110 37 -149 22 l-40 -14 -35 38 c-36 40 -73 49 -113 28 -20 -11 -65 6 -101 37 -9 8 -36 19 -60 24 -24 5 -63 19 -88 31 -34 15 -64 20 -124 20 -75 0 -81 1 -109 30 -25 24 -36 29 -61 24 -23 -5 -35 -1 -57 20 -20 19 -44 28 -100 36 -41 7 -85 19 -99 28 -37 24 -109 43 -163 41 -27 0 -62 6 -80 15 -17 9 -49 16 -71 16 -39 -1 -106 30 -106 48 0 17 -56 31 -85 20 -22 -8 -33 -7 -51 5 -14 9 -34 13 -47 10 -19 -5 -26 0 -40 29 -9 20 -20 36 -24 37 -5 1 -33 2 -64 3 -40 2 -65 9 -88 25 -26 19 -40 22 -75 17 -34 -5 -48 -3 -69 14 l-27 21 0 -34z"></path></g></g><g id="l7GkEIvlLO4neLTyt2FrgHa" fill="rgb(41,41,41)" style="transform: none;"><g><path id="pwVaGyLVL" d="M3994 3244 c13 -30 26 -44 39 -44 17 0 19 -5 13 -40 -5 -35 -4 -40 13 -40 11 0 23 -4 26 -10 9 -15 25 -12 25 5 0 8 -4 15 -10 15 -5 0 -12 11 -16 25 -3 14 -10 25 -15 25 -5 0 -9 9 -9 21 0 22 -22 49 -39 49 -6 0 -11 3 -11 8 0 4 -8 12 -18 19 -17 10 -17 8 2 -33z"></path><path id="pChY1sDd4" d="M650 3133 c0 -16 -7 -40 -14 -55 -15 -28 -7 -38 12 -15 12 15 21 97 10 97 -5 0 -8 -12 -8 -27z"></path><path id="pblXAGFZE" d="M1396 2403 c-22 -3 -52 -13 -67 -24 -15 -10 -33 -19 -41 -19 -8 0 -30 -17 -50 -37 -33 -34 -42 -58 -87 -215 -28 -97 -51 -183 -51 -190 0 -21 53 -68 76 -68 11 0 28 -6 38 -13 17 -12 17 -17 -5 -97 -30 -108 -66 -139 -132 -117 -32 11 -53 -3 -59 -39 -4 -25 69 -154 87 -154 6 0 20 -9 30 -20 25 -27 110 -49 176 -45 41 2 67 11 100 33 65 45 86 71 103 132 67 242 103 359 121 391 8 14 18 53 24 87 5 33 15 70 20 81 20 37 13 123 -13 161 -13 19 -26 45 -30 58 -4 12 -14 22 -21 22 -8 0 -23 10 -34 22 -20 20 -114 60 -136 56 -5 -1 -28 -3 -49 -5z"></path><path id="pWXcBJzAK" d="M100 1207 c0 -8 -7 -20 -15 -27 -17 -14 -22 -130 -5 -130 5 0 12 -11 16 -25 3 -14 10 -25 15 -25 5 0 9 -9 9 -21 0 -19 21 -49 35 -49 3 0 16 -9 28 -20 11 -11 38 -23 59 -26 21 -4 38 -10 38 -15 0 -5 18 -9 40 -9 22 0 40 -4 40 -10 0 -5 15 -10 34 -10 19 0 41 -7 50 -15 8 -8 28 -15 45 -15 16 0 33 -4 36 -10 3 -5 21 -10 40 -10 19 0 36 -4 39 -9 3 -4 24 -11 46 -15 22 -3 40 -11 40 -16 0 -6 20 -10 45 -10 25 0 45 -4 45 -10 0 -5 16 -10 35 -10 22 0 38 -6 41 -15 4 -10 20 -15 44 -15 22 0 42 -4 45 -10 3 -5 22 -10 41 -10 19 0 34 -4 34 -9 0 -4 19 -11 42 -14 24 -3 44 -11 46 -16 2 -6 21 -11 43 -11 21 0 39 -4 39 -10 0 -5 13 -10 29 -10 16 0 42 -7 57 -15 16 -8 41 -15 57 -15 15 0 27 -4 27 -10 0 -5 16 -10 35 -10 19 0 35 -4 35 -10 0 -5 15 -10 33 -10 18 0 42 -7 53 -15 10 -8 34 -15 52 -15 17 0 32 -4 32 -10 0 -5 18 -10 39 -10 22 0 43 -4 46 -10 3 -5 14 -10 23 -10 9 0 30 -7 46 -15 15 -8 44 -15 62 -15 19 0 34 -4 34 -10 0 -5 15 -10 34 -10 18 0 39 -7 46 -15 7 -8 27 -15 46 -15 18 0 36 -5 39 -10 3 -6 21 -10 40 -10 19 0 37 -5 40 -10 3 -6 16 -10 28 -10 12 0 35 -7 51 -15 15 -8 41 -15 57 -15 16 0 29 -4 29 -10 0 -5 13 -10 29 -10 16 0 42 -7 57 -15 16 -8 41 -15 57 -15 15 0 27 -4 27 -10 0 -5 15 -10 34 -10 19 0 38 -4 41 -10 3 -5 19 -10 34 -10 15 0 36 -7 47 -15 10 -8 34 -15 52 -15 17 0 32 -4 32 -10 0 -5 18 -10 39 -10 22 0 42 -4 45 -9 4 -5 24 -12 46 -16 22 -4 40 -11 40 -16 0 -5 18 -9 40 -9 22 0 40 -4 40 -10 0 -5 15 -10 34 -10 18 0 39 -7 46 -15 14 -17 130 -22 130 -5 0 5 11 12 25 16 14 3 25 10 25 15 0 5 9 9 21 9 19 0 49 21 49 35 0 3 8 15 19 26 10 11 21 38 25 60 3 21 11 39 16 39 6 0 10 18 10 39 0 22 5 41 13 44 10 4 10 7 0 18 -9 9 -13 9 -13 1 0 -6 -12 -17 -27 -25 -37 -17 -190 -16 -222 2 -17 10 -47 12 -99 8 -68 -5 -80 -3 -136 23 -33 16 -86 32 -116 35 -79 9 -177 43 -226 78 -36 25 -53 30 -118 33 -42 1 -81 6 -87 9 -5 4 -34 8 -62 10 -29 2 -83 13 -122 25 -38 12 -90 24 -115 27 -33 4 -54 14 -78 36 -29 28 -40 32 -86 32 -45 0 -61 6 -99 33 -26 18 -58 32 -74 32 -16 0 -45 12 -66 26 -36 24 -41 25 -104 15 -36 -6 -71 -7 -77 -4 -6 3 -35 22 -64 41 -48 31 -61 35 -165 43 -104 8 -177 29 -177 51 0 8 -77 44 -140 64 -25 8 -83 17 -130 19 -124 7 -150 12 -174 33 -11 11 -34 22 -49 26 -16 4 -46 18 -67 32 -25 17 -49 25 -69 23 -19 -3 -41 4 -60 19 -17 12 -37 22 -45 22 -8 0 -36 13 -63 30 -61 37 -103 48 -103 27z"></path><path id="pWv8HwBZw" d="M3525 1101 c-11 -36 -14 -81 -4 -81 5 0 9 14 9 31 0 17 5 39 10 50 7 12 7 19 1 19 -5 0 -12 -9 -16 -19z"></path></g></g><g id="l1Vsf9jTvUwv2FIHraCDEeA" fill="rgb(49,49,49)" style="transform: none;"><g><path id="pdyWiQdBQ" d="M1396 2403 c-22 -3 -52 -13 -67 -24 -15 -10 -33 -19 -41 -19 -8 0 -30 -17 -50 -37 -33 -34 -42 -58 -87 -215 -28 -97 -51 -183 -51 -190 0 -21 53 -68 76 -68 11 0 28 -6 38 -13 17 -12 17 -17 -5 -96 -30 -108 -50 -127 -125 -122 -28 3 -54 -24 -54 -55 0 -30 57 -134 74 -134 7 0 21 -9 31 -20 25 -27 110 -49 176 -45 41 2 67 11 100 33 65 45 86 71 103 132 67 242 103 359 121 391 8 14 18 53 24 87 5 33 15 70 20 81 20 37 13 123 -13 161 -13 19 -26 45 -30 58 -4 12 -14 22 -21 22 -8 0 -23 10 -34 22 -20 20 -114 60 -136 56 -5 -1 -28 -3 -49 -5z"></path><path id="p11HMIxArm" d="M2372 1979 c-31 -57 -28 -89 16 -183 35 -74 48 -89 146 -176 59 -52 118 -101 131 -107 55 -29 270 -51 329 -33 22 7 62 19 88 27 67 20 88 51 88 127 0 101 -3 103 -177 108 -139 4 -153 6 -233 38 -103 40 -189 99 -262 180 -68 75 -94 79 -126 19z"></path><path id="pdpPu1egX" d="M100 1206 c0 -7 -7 -19 -15 -26 -17 -14 -22 -130 -5 -130 5 0 12 -11 16 -25 3 -14 10 -25 15 -25 5 0 9 -9 9 -21 0 -19 21 -49 35 -49 3 0 16 -9 28 -20 11 -11 38 -23 59 -26 21 -4 38 -10 38 -15 0 -5 18 -9 40 -9 22 0 40 -4 40 -10 0 -5 15 -10 34 -10 19 0 41 -7 50 -15 8 -8 28 -15 45 -15 16 0 33 -4 36 -10 3 -5 21 -10 40 -10 19 0 36 -4 39 -9 3 -4 24 -11 46 -15 22 -3 40 -11 40 -16 0 -6 20 -10 45 -10 25 0 45 -4 45 -10 0 -5 16 -10 35 -10 22 0 38 -6 41 -15 4 -10 20 -15 44 -15 22 0 42 -4 45 -10 3 -5 22 -10 41 -10 19 0 34 -4 34 -9 0 -4 19 -11 42 -14 24 -3 44 -11 46 -16 2 -6 21 -11 43 -11 21 0 39 -4 39 -10 0 -5 13 -10 29 -10 16 0 42 -7 57 -15 16 -8 41 -15 57 -15 15 0 27 -4 27 -10 0 -5 16 -10 35 -10 19 0 35 -4 35 -10 0 -5 15 -10 33 -10 18 0 42 -7 53 -15 10 -8 34 -15 52 -15 17 0 32 -4 32 -10 0 -5 18 -10 39 -10 22 0 43 -4 46 -10 3 -5 14 -10 23 -10 9 0 30 -7 46 -15 15 -8 44 -15 62 -15 19 0 34 -4 34 -10 0 -5 15 -10 34 -10 18 0 39 -7 46 -15 7 -8 27 -15 46 -15 18 0 36 -5 39 -10 3 -6 21 -10 40 -10 19 0 37 -5 40 -10 3 -6 16 -10 28 -10 12 0 35 -7 51 -15 15 -8 41 -15 57 -15 16 0 29 -4 29 -10 0 -5 13 -10 29 -10 16 0 42 -7 57 -15 16 -8 41 -15 57 -15 15 0 27 -4 27 -10 0 -5 15 -10 34 -10 19 0 38 -4 41 -10 3 -5 19 -10 34 -10 15 0 36 -7 47 -15 10 -8 34 -15 52 -15 17 0 32 -4 32 -10 0 -5 18 -10 39 -10 22 0 42 -4 45 -9 4 -5 24 -12 46 -16 22 -4 40 -11 40 -16 0 -5 18 -9 40 -9 22 0 40 -4 40 -10 0 -5 15 -10 34 -10 18 0 39 -7 46 -15 14 -17 130 -22 130 -5 0 5 11 12 25 16 14 3 25 10 25 15 0 5 9 9 21 9 19 0 49 21 49 35 0 3 8 15 19 26 10 11 21 38 25 60 3 21 11 39 16 39 6 0 10 18 10 39 0 22 5 41 12 43 6 2 8 9 4 16 -5 8 -13 5 -27 -9 -11 -11 -33 -22 -49 -26 -20 -4 -30 -12 -30 -24 0 -16 -8 -17 -97 -13 -58 3 -106 10 -118 18 -17 11 -25 11 -44 2 -31 -17 -71 -9 -71 15 0 32 -37 43 -80 24 -37 -17 -38 -17 -77 9 -35 23 -47 26 -107 22 -63 -4 -69 -3 -101 26 -46 40 -132 62 -211 54 -57 -6 -63 -4 -88 20 -14 15 -26 32 -26 39 0 10 -76 45 -96 45 -1 0 -5 -13 -9 -30 -4 -16 -9 -30 -11 -30 -14 0 -53 26 -85 56 -19 19 -44 33 -55 32 -32 -4 -97 14 -126 33 -21 15 -32 17 -53 9 -39 -15 -63 -12 -87 10 -38 35 -102 60 -168 64 -103 7 -152 17 -196 37 -22 10 -47 19 -56 19 -8 0 -33 13 -55 29 -57 41 -98 61 -128 61 -14 0 -36 7 -48 15 -23 15 -85 19 -209 15 -20 -1 -48 6 -62 16 -16 10 -37 14 -53 11 -40 -7 -63 8 -63 43 0 17 -6 31 -12 31 -7 1 -24 3 -38 4 -14 2 -38 -3 -54 -11 -39 -19 -38 -19 -86 21 -23 19 -48 35 -55 35 -7 0 -26 7 -41 15 -16 8 -40 15 -54 15 -14 0 -38 9 -54 19 -20 14 -39 18 -63 14 l-35 -6 7 46 c7 44 6 47 -20 57 -35 13 -45 13 -45 -4z"></path></g></g><g id="l3PzBsz0Mfu0cFdzKjDiAdH" fill="rgb(58,58,58)" style="transform: none;"><g><path id="pBGIljRQm" d="M2240 3169 c-118 -56 -279 -147 -345 -194 -16 -12 -70 -41 -119 -65 -119 -56 -138 -76 -130 -132 15 -94 108 -208 171 -208 13 0 43 13 66 29 23 15 101 61 172 101 72 40 158 90 192 111 34 22 71 39 82 39 16 0 35 -28 84 -122 150 -288 198 -374 214 -385 23 -18 90 -16 146 3 45 15 137 99 137 125 0 6 -13 35 -29 63 -91 164 -301 562 -301 573 0 14 -14 19 -130 50 -133 36 -157 38 -210 12z"></path><path id="p1HFEdnzlz" d="M2372 1979 c-12 -22 -22 -54 -22 -69 0 -37 49 -150 65 -150 6 0 34 -29 60 -66 47 -63 148 -160 192 -183 54 -28 269 -48 327 -31 22 7 62 19 88 27 67 20 88 51 88 127 0 101 -3 103 -177 108 -139 4 -153 6 -233 38 -103 40 -189 99 -262 180 -68 75 -94 79 -126 19z"></path><path id="pFJuSmLfH" d="M70 1107 c0 -31 4 -57 10 -57 5 0 12 -11 16 -25 3 -14 10 -25 15 -25 5 0 9 -9 9 -21 0 -19 21 -49 35 -49 3 0 16 -9 28 -20 11 -11 38 -23 59 -26 21 -4 38 -10 38 -15 0 -5 18 -9 40 -9 22 0 40 -4 40 -10 0 -5 15 -10 34 -10 19 0 41 -7 50 -15 8 -8 28 -15 45 -15 16 0 33 -4 36 -10 3 -5 21 -10 40 -10 19 0 36 -4 39 -9 3 -4 24 -11 46 -15 22 -3 40 -11 40 -16 0 -6 20 -10 45 -10 25 0 45 -4 45 -10 0 -5 16 -10 35 -10 22 0 38 -6 41 -15 4 -10 20 -15 44 -15 22 0 42 -4 45 -10 3 -5 22 -10 41 -10 19 0 34 -4 34 -9 0 -4 19 -11 42 -14 24 -3 44 -11 46 -16 2 -6 21 -11 43 -11 21 0 39 -4 39 -10 0 -5 13 -10 29 -10 16 0 42 -7 57 -15 16 -8 41 -15 57 -15 15 0 27 -4 27 -10 0 -5 16 -10 35 -10 19 0 35 -4 35 -10 0 -5 15 -10 33 -10 18 0 42 -7 53 -15 10 -8 34 -15 52 -15 17 0 32 -4 32 -10 0 -5 18 -10 39 -10 22 0 43 -4 46 -10 3 -6 14 -10 23 -10 9 0 30 -7 46 -15 15 -8 44 -15 62 -15 19 0 34 -4 34 -10 0 -5 15 -10 34 -10 18 0 39 -7 46 -15 7 -8 27 -15 46 -15 18 0 36 -5 39 -10 3 -6 21 -10 40 -10 19 0 37 -5 40 -10 3 -6 16 -10 28 -10 12 0 35 -7 51 -15 15 -8 41 -15 57 -15 16 0 29 -4 29 -10 0 -5 13 -10 29 -10 16 0 42 -7 57 -15 16 -8 41 -15 57 -15 15 0 27 -4 27 -10 0 -5 15 -10 34 -10 19 0 38 -5 41 -10 3 -5 19 -10 34 -10 15 0 36 -7 47 -15 10 -8 34 -15 52 -15 17 0 32 -4 32 -10 0 -5 18 -10 39 -10 22 0 42 -4 45 -9 4 -5 24 -12 46 -16 22 -4 40 -11 40 -16 0 -5 18 -9 40 -9 22 0 40 -4 40 -10 0 -5 15 -10 34 -10 18 0 39 -7 46 -15 14 -17 130 -22 130 -5 0 5 11 12 25 16 14 3 25 10 25 15 0 5 9 9 21 9 19 0 49 21 49 35 0 3 9 15 20 27 11 12 20 30 20 39 0 10 3 25 7 35 4 12 3 15 -5 10 -7 -4 -28 -2 -48 3 -28 8 -43 7 -63 -4 -19 -9 -32 -10 -44 -3 -12 6 -28 6 -45 0 -30 -10 -48 -10 -140 2 -34 5 -65 13 -68 17 -3 5 -17 9 -31 9 -15 0 -35 8 -46 18 -15 13 -34 16 -91 14 -77 -3 -99 4 -179 52 -46 27 -53 28 -123 22 -69 -5 -78 -4 -114 20 -22 15 -40 32 -40 39 0 18 -88 58 -117 52 -15 -3 -41 4 -65 18 -37 21 -43 22 -73 9 -32 -13 -36 -12 -93 26 -42 29 -70 40 -96 40 -20 0 -51 7 -68 16 -18 9 -40 13 -55 9 -27 -6 -79 7 -135 36 -20 10 -51 19 -69 19 -17 0 -49 10 -70 22 -35 19 -42 20 -78 8 -36 -11 -43 -11 -74 9 -20 12 -51 21 -74 21 -28 0 -46 6 -59 21 -25 28 -101 72 -112 65 -5 -3 -18 1 -28 9 -10 8 -39 15 -63 15 -32 0 -54 7 -78 26 l-33 25 -30 -21 c-24 -17 -38 -20 -70 -15 -36 6 -40 10 -40 35 0 31 -13 39 -80 47 -50 5 -117 26 -159 48 -55 28 -149 56 -183 53 -35 -2 -95 32 -160 91 l-28 25 0 -57z"></path></g></g><g id="lGaHkvQcgFp1e3CB6sveh6" fill="rgb(66,66,66)" style="transform: none;"><g><path id="p1BKC8ebo9" d="M2372 1979 c-26 -48 -29 -107 -7 -115 8 -3 28 -32 44 -64 55 -108 179 -247 258 -288 53 -29 269 -49 327 -32 22 7 62 19 88 27 67 20 88 51 88 127 0 101 -3 103 -177 108 -139 4 -153 6 -233 38 -103 40 -189 99 -262 180 -68 75 -94 79 -126 19z"></path><path id="pWWZqcIbQ" d="M70 1066 c0 -9 4 -16 10 -16 5 0 12 -11 16 -25 3 -14 10 -25 15 -25 5 0 9 -9 9 -21 0 -19 21 -49 35 -49 3 0 16 -9 28 -20 11 -11 38 -23 59 -26 21 -4 38 -10 38 -15 0 -5 18 -9 40 -9 22 0 40 -4 40 -10 0 -5 15 -10 34 -10 19 0 41 -7 50 -15 8 -8 28 -15 45 -15 16 0 33 -4 36 -10 3 -5 21 -10 40 -10 19 0 36 -4 39 -9 3 -4 24 -11 46 -15 22 -3 40 -11 40 -16 0 -6 20 -10 45 -10 25 0 45 -4 45 -10 0 -5 16 -10 35 -10 22 0 38 -6 41 -15 4 -10 20 -15 44 -15 22 0 42 -4 45 -10 3 -5 22 -10 41 -10 19 0 34 -4 34 -9 0 -4 19 -11 42 -14 24 -3 44 -11 46 -16 2 -6 21 -11 43 -11 21 0 39 -4 39 -10 0 -5 13 -10 29 -10 16 0 42 -7 57 -15 16 -8 41 -15 57 -15 15 0 27 -4 27 -10 0 -5 16 -10 35 -10 19 0 35 -4 35 -10 0 -5 15 -10 33 -10 18 0 42 -7 53 -15 10 -8 34 -15 52 -15 17 0 32 -4 32 -10 0 -5 18 -10 39 -10 22 0 43 -5 46 -10 3 -6 14 -10 23 -10 9 0 30 -7 46 -15 15 -8 44 -15 62 -15 19 0 34 -4 34 -10 0 -5 15 -10 34 -10 18 0 39 -7 46 -15 7 -8 27 -15 46 -15 18 0 36 -4 39 -10 3 -5 21 -10 40 -10 19 0 37 -5 40 -10 3 -6 16 -10 28 -10 12 0 35 -7 51 -15 15 -8 41 -15 57 -15 16 0 29 -4 29 -10 0 -5 13 -10 29 -10 16 0 42 -7 57 -15 16 -8 41 -15 57 -15 15 0 27 -4 27 -10 0 -5 15 -10 34 -10 19 0 38 -5 41 -10 3 -6 19 -10 34 -10 15 0 36 -7 47 -15 10 -8 34 -15 52 -15 17 0 32 -4 32 -10 0 -5 18 -10 39 -10 22 0 42 -4 45 -9 4 -5 24 -12 46 -16 22 -4 40 -11 40 -16 0 -5 18 -9 40 -9 22 0 40 -4 40 -10 0 -5 15 -10 34 -10 18 0 39 -7 46 -15 14 -17 130 -22 130 -5 0 5 11 12 25 16 14 3 25 10 25 15 0 5 9 9 21 9 22 0 49 22 49 39 0 6 3 11 8 11 4 0 12 8 18 18 10 16 6 17 -63 14 -43 -3 -85 1 -102 8 -19 8 -36 8 -48 2 -31 -16 -201 5 -241 30 -31 19 -39 20 -79 10 -43 -12 -45 -12 -88 24 -40 32 -51 36 -114 39 -63 3 -76 8 -117 39 -54 41 -59 42 -115 19 -40 -16 -43 -16 -85 8 -24 13 -44 27 -44 31 0 4 -18 19 -41 34 -51 32 -112 38 -158 17 -32 -16 -36 -16 -70 4 -20 11 -37 30 -39 41 -5 32 -101 60 -222 65 -46 2 -101 21 -174 59 -21 11 -59 22 -85 23 -176 14 -184 15 -215 38 -32 24 -97 57 -113 57 -5 0 -47 16 -93 36 -59 24 -95 34 -116 30 -23 -3 -42 3 -67 20 -22 15 -74 31 -141 45 -92 18 -109 19 -133 7 -36 -18 -63 -11 -109 30 -52 46 -71 55 -134 59 -65 5 -107 27 -130 68 -19 34 -70 49 -70 21z"></path></g></g><g id="l5Np7yLc3YcUigNYbUklIAA" fill="rgb(74,74,74)" style="transform: none;"><g><path id="pntobRwtA" d="M2240 3169 c-117 -55 -277 -146 -345 -194 -16 -12 -73 -43 -126 -69 -105 -51 -109 -56 -109 -137 0 -60 34 -125 89 -166 52 -40 81 -41 134 -4 23 15 101 61 172 101 72 40 158 90 192 111 34 22 71 39 82 39 16 0 35 -28 84 -122 150 -288 198 -374 214 -385 23 -18 90 -16 146 3 45 15 137 99 137 125 0 6 -13 35 -29 63 -91 164 -301 562 -301 573 0 14 -14 19 -130 50 -133 36 -157 38 -210 12z"></path><path id="pjLelQjMw" d="M1396 2403 c-22 -3 -52 -13 -67 -24 -15 -10 -33 -19 -41 -19 -8 0 -30 -17 -50 -37 -33 -34 -42 -58 -87 -215 -28 -97 -51 -183 -51 -190 0 -21 53 -68 76 -68 11 0 28 -6 38 -13 17 -12 17 -17 -5 -96 -30 -108 -50 -127 -125 -122 -28 3 -54 -24 -54 -55 0 -30 57 -134 74 -134 7 0 21 -9 31 -20 25 -27 110 -49 176 -45 41 2 67 11 100 33 65 45 86 71 103 132 9 30 26 93 40 140 13 47 38 135 56 195 17 61 40 137 52 170 12 33 23 86 26 118 3 49 0 64 -21 95 -13 21 -27 47 -31 60 -4 12 -14 22 -21 22 -8 0 -23 10 -34 22 -20 20 -114 60 -136 56 -5 -1 -28 -3 -49 -5z"></path><path id="pTniaH8xm" d="M2372 1979 c-26 -48 -29 -107 -7 -115 8 -3 28 -32 44 -64 55 -108 179 -247 258 -288 53 -29 269 -49 327 -32 22 7 62 19 88 27 67 20 88 51 88 127 0 101 -7 106 -153 106 -82 0 -143 5 -182 16 -33 9 -78 20 -101 24 -54 11 -94 30 -94 45 0 7 -18 25 -41 41 -23 15 -67 56 -99 91 -71 78 -96 82 -128 22z"></path><path id="pdRfJpDog" d="M118 983 c5 -26 24 -53 37 -53 3 0 16 -9 28 -20 11 -11 38 -23 59 -26 21 -4 38 -10 38 -15 0 -5 18 -9 40 -9 22 0 40 -4 40 -10 0 -5 15 -10 34 -10 19 0 41 -7 50 -15 8 -8 28 -15 45 -15 16 0 33 -4 36 -10 3 -5 21 -10 40 -10 19 0 36 -4 39 -9 3 -4 24 -11 46 -15 22 -3 40 -11 40 -16 0 -6 20 -10 45 -10 25 0 45 -4 45 -10 0 -5 16 -10 35 -10 22 0 38 -6 41 -15 4 -10 20 -15 44 -15 22 0 42 -4 45 -10 3 -5 22 -10 41 -10 19 0 34 -4 34 -9 0 -4 19 -11 42 -14 24 -3 44 -11 46 -16 2 -6 21 -11 43 -11 21 0 39 -4 39 -10 0 -5 13 -10 29 -10 16 0 42 -7 57 -15 16 -8 41 -15 57 -15 15 0 27 -4 27 -10 0 -5 16 -10 35 -10 19 0 35 -4 35 -10 0 -5 15 -10 33 -10 18 0 42 -7 53 -15 10 -8 34 -15 52 -15 17 0 32 -4 32 -10 0 -5 18 -10 39 -10 22 0 43 -5 46 -10 3 -6 14 -10 23 -10 9 0 30 -7 46 -15 15 -8 44 -15 62 -15 19 0 34 -4 34 -10 0 -5 15 -10 34 -10 18 0 39 -7 46 -15 7 -8 27 -15 46 -15 18 0 36 -5 39 -10 3 -6 21 -10 40 -10 19 0 37 -4 40 -10 3 -5 16 -10 28 -10 12 0 35 -7 51 -15 15 -8 41 -15 57 -15 16 0 29 -4 29 -10 0 -5 13 -10 29 -10 16 0 42 -7 57 -15 16 -8 41 -15 57 -15 15 0 27 -4 27 -10 0 -5 15 -10 34 -10 19 0 38 -5 41 -10 3 -6 19 -10 34 -10 15 0 36 -7 47 -15 10 -8 34 -15 52 -15 17 0 32 -4 32 -10 0 -5 18 -10 39 -10 22 0 42 -4 45 -9 4 -5 24 -12 46 -16 22 -4 40 -11 40 -16 0 -5 18 -9 40 -9 22 0 40 -4 40 -10 0 -5 15 -10 34 -10 18 0 39 -7 46 -15 14 -17 130 -22 130 -5 0 5 11 12 25 16 14 3 25 10 25 15 0 5 9 9 21 9 22 0 49 22 49 39 0 6 3 11 8 11 4 0 13 9 20 20 12 19 11 20 -15 14 -16 -3 -50 -13 -76 -22 -42 -13 -61 -13 -140 -2 -51 7 -104 19 -119 26 -37 19 -65 17 -103 -6 l-33 -20 -68 32 c-40 19 -87 33 -114 34 -31 1 -66 13 -103 34 -45 25 -65 31 -94 27 -39 -6 -55 1 -164 60 l-56 31 -43 -24 -42 -24 -42 32 c-22 18 -47 38 -54 45 -7 7 -25 15 -40 19 -15 3 -42 13 -61 22 -23 11 -62 17 -115 18 -85 1 -154 11 -171 24 -5 5 -30 13 -55 20 -25 6 -65 19 -90 30 -25 10 -73 24 -107 30 -35 7 -63 16 -63 20 0 11 -81 60 -100 60 -11 0 -30 -5 -44 -11 -19 -9 -29 -8 -47 5 -13 9 -30 16 -39 16 -32 0 -91 22 -117 44 -27 21 -130 60 -149 55 -18 -5 -80 14 -106 33 -20 14 -36 17 -61 13 -26 -5 -53 1 -108 23 -122 49 -171 64 -223 66 -41 2 -53 8 -80 39 -35 40 -64 57 -99 57 -21 0 -24 -4 -19 -27z"></path></g></g><g id="l7dStTl4MvyhYxTom3zEHBb" fill="rgb(82,82,82)" style="transform: none;"><g><path id="puNUI2cQ2" d="M2265 3181 c-11 -5 -58 -34 -105 -65 -47 -31 -93 -56 -103 -56 -23 0 -67 -22 -137 -69 -30 -20 -98 -58 -151 -84 -104 -51 -109 -57 -109 -133 0 -66 17 -100 74 -143 63 -49 85 -51 169 -13 58 27 277 150 366 207 68 42 73 39 144 -97 150 -288 198 -374 214 -385 23 -18 90 -16 146 3 45 15 137 99 137 125 0 6 -13 35 -29 63 -33 59 -60 110 -199 371 -97 181 -104 191 -149 216 -82 46 -227 78 -268 60z"></path><path id="pCNEImCJ4" d="M2401 1997 c-27 -33 -41 -86 -30 -114 23 -60 70 -144 113 -201 45 -59 141 -148 183 -170 33 -18 159 -36 243 -36 100 1 148 16 198 61 39 35 42 43 42 88 0 103 -18 115 -160 115 -57 0 -120 7 -155 16 -33 9 -78 20 -101 24 -54 11 -94 30 -94 45 0 7 -17 24 -38 39 -21 14 -51 40 -67 56 -16 17 -34 30 -41 30 -7 0 -22 14 -34 30 -23 32 -41 38 -59 17z"></path><path id="pTgIsbAy0" d="M175 929 c-10 -14 23 -37 65 -45 19 -4 38 -12 42 -18 4 -6 9 -8 12 -5 3 3 -6 22 -20 42 -20 30 -31 37 -59 37 -18 0 -37 -5 -40 -11z"></path><path id="p1GVsPY4jE" d="M385 855 l-30 -14 37 -1 c20 0 43 -7 52 -15 8 -8 28 -15 45 -15 16 0 33 -4 36 -10 3 -5 21 -10 38 -10 29 1 25 4 -43 40 -81 43 -90 45 -135 25z"></path><path id="pyXRvdvEW" d="M936 685 c10 -8 34 -15 52 -15 17 0 32 -4 32 -9 0 -4 19 -11 42 -14 24 -3 44 -11 46 -16 2 -6 16 -11 30 -11 l27 0 -26 25 c-27 28 -116 54 -183 55 -37 0 -39 -1 -20 -15z"></path><path id="p1cT9T8bt" d="M1266 590 c6 -6 30 -14 53 -17 22 -3 41 -10 41 -14 0 -5 16 -9 35 -9 19 0 35 -4 35 -10 0 -5 15 -10 33 -10 18 0 42 -7 53 -15 10 -8 34 -15 52 -15 17 0 32 -4 32 -10 0 -5 18 -10 39 -10 22 0 43 -4 46 -10 3 -5 14 -10 23 -10 9 0 30 -7 46 -15 49 -26 41 -8 -10 24 -27 17 -63 31 -79 31 -17 0 -35 4 -40 9 -6 5 -35 16 -65 25 -30 8 -81 24 -114 36 -69 25 -198 40 -180 20z"></path><path id="p1ALEgcCqP" d="M2256 306 c4 -9 18 -16 34 -16 15 0 41 -7 56 -15 43 -22 66 -20 62 7 -3 23 -11 25 -106 35 -45 4 -51 3 -46 -11z"></path><path id="ptq068eI8" d="M2530 251 c0 -6 -7 -11 -16 -11 -27 0 -5 -18 28 -22 18 -3 39 -7 47 -9 8 -2 16 3 18 13 3 10 -4 19 -19 23 -13 4 -31 9 -40 11 -10 3 -18 1 -18 -5z"></path><path id="p1CEkHAsqY" d="M2749 166 c7 -8 30 -17 52 -21 21 -4 39 -11 39 -16 0 -5 17 -9 38 -9 l37 0 -50 30 c-54 32 -139 44 -116 16z"></path><path id="pa7xThz8u" d="M2995 124 c-11 -8 -32 -14 -47 -11 -16 2 -28 0 -28 -5 0 -4 15 -8 34 -8 18 0 39 -7 46 -15 14 -17 130 -22 130 -5 0 5 11 12 24 16 37 9 40 31 4 38 -56 11 -142 6 -163 -10z"></path></g></g><g id="l30lka45u9E78ZlnnVS7gbJ" fill="rgb(90,90,90)" style="transform: none;"><g><path id="pM4wXJKj0" d="M2270 3183 c-8 -3 -51 -29 -95 -58 -44 -28 -93 -58 -110 -67 -97 -48 -232 -122 -244 -131 -7 -7 -45 -30 -85 -52 -70 -40 -71 -41 -74 -85 -6 -74 12 -113 71 -159 64 -49 86 -51 170 -13 101 47 329 182 357 212 28 30 71 47 90 35 12 -7 112 -199 120 -230 9 -35 131 -266 151 -286 24 -24 87 -25 152 -3 44 15 137 99 137 124 0 16 -102 200 -111 200 -12 0 -179 308 -179 330 0 43 -34 91 -85 119 -76 44 -226 80 -265 64z"></path><path id="pSQnScUzW" d="M1298 2355 c-72 -56 -81 -71 -109 -173 -12 -45 -25 -78 -29 -72 -6 9 -60 -164 -60 -193 0 -20 53 -67 76 -67 11 0 28 -6 38 -13 17 -12 17 -17 -5 -96 -30 -108 -50 -127 -125 -122 -28 3 -54 -24 -54 -55 0 -42 47 -112 81 -119 16 -4 35 -15 41 -24 17 -24 116 -53 138 -41 9 5 27 6 39 3 32 -8 102 22 139 60 19 19 37 54 46 87 9 30 26 93 40 140 13 47 38 135 56 195 17 61 40 137 52 170 12 33 23 86 26 118 3 50 0 64 -22 97 -14 22 -26 44 -26 49 0 5 -16 15 -36 21 -19 7 -38 18 -41 26 -7 18 -106 46 -137 38 -13 -3 -27 -1 -30 5 -13 21 -41 11 -98 -34z"></path><path id="p1FYEOB2hd" d="M2401 1997 c-6 -8 -18 -30 -26 -50 -14 -35 -14 -40 7 -90 39 -90 129 -227 150 -227 6 0 24 -12 42 -26 88 -72 107 -82 166 -89 37 -4 68 -14 82 -27 19 -16 33 -19 93 -15 101 6 146 21 195 66 l42 39 -4 65 c-2 37 -7 70 -12 74 -4 4 -55 7 -112 5 -57 -1 -104 1 -104 6 0 5 -24 14 -52 21 -149 32 -228 58 -228 75 0 8 -17 25 -38 40 -21 14 -51 40 -67 56 -16 17 -34 30 -41 30 -7 0 -22 14 -34 30 -23 32 -41 38 -59 17z"></path><path id="pDl3m6nAN" d="M3104 113 c-12 -20 -72 -22 -141 -6 -24 6 -43 6 -43 2 0 -5 15 -9 34 -9 18 0 39 -7 46 -15 14 -17 130 -22 130 -5 0 5 11 12 24 16 14 3 27 12 30 20 8 22 -66 19 -80 -3z"></path></g></g><g id="lcDDkhsft1oHqHnZqccA92" fill="rgb(99,99,99)" style="transform: none;"><g><path id="pFU2zyWRi" d="M2920 109 c0 -4 18 -9 39 -11 22 -2 37 0 35 3 -5 9 -74 17 -74 8z"></path></g></g><g id="l5dbxhwTntJfGHvkqKP4qbu" fill="rgb(107,107,107)" style="transform: none;"><g><path id="phaIGZvT" d="M2270 3183 c-8 -3 -51 -29 -95 -58 -44 -28 -93 -58 -110 -67 -97 -48 -232 -122 -244 -131 -7 -7 -45 -30 -85 -52 -70 -40 -71 -41 -74 -85 -6 -74 12 -113 71 -159 33 -25 65 -41 81 -41 37 0 152 54 184 86 39 39 313 195 337 192 14 -2 36 -34 77 -113 32 -60 58 -115 58 -121 0 -20 140 -279 158 -292 22 -17 122 -11 147 9 48 38 95 92 101 116 7 28 -17 78 -182 378 -45 83 -95 176 -110 208 -25 51 -33 59 -69 68 -22 6 -64 22 -94 36 -54 26 -123 38 -151 26z"></path><path id="p9mTfPNUn" d="M1298 2355 c-73 -57 -81 -70 -111 -185 -72 -266 -71 -261 -50 -282 10 -10 34 -27 53 -37 41 -22 42 -34 11 -137 -23 -78 -43 -97 -103 -96 -70 1 -87 -47 -42 -123 18 -31 34 -46 55 -50 16 -4 35 -15 41 -24 17 -24 116 -53 138 -41 9 5 27 6 39 3 32 -8 102 22 139 60 19 19 37 54 46 87 9 30 26 93 40 140 13 47 38 135 56 195 17 61 40 137 52 170 12 33 23 86 26 118 3 50 0 64 -22 97 -14 22 -26 44 -26 49 0 5 -16 15 -36 21 -19 7 -38 18 -41 26 -7 18 -106 46 -137 38 -13 -3 -27 -1 -30 5 -13 21 -41 11 -98 -34z"></path></g></g><g id="l2Inm1WXTB5PkaDCHsjXEEt" fill="rgb(115,115,115)" style="transform: none;"><g><path id="p1FyzW66gQ" d="M2270 3183 c-8 -3 -51 -29 -95 -58 -44 -28 -93 -58 -110 -67 -97 -48 -232 -122 -244 -131 -7 -7 -45 -30 -85 -52 -70 -40 -71 -41 -74 -85 -6 -74 12 -113 71 -159 33 -25 65 -41 81 -41 37 0 152 54 184 86 39 39 313 195 337 192 14 -2 36 -34 77 -113 32 -60 58 -115 58 -121 0 -19 91 -184 101 -184 5 0 20 -22 33 -49 29 -56 57 -66 141 -49 56 12 119 67 131 115 7 28 -17 78 -182 378 -45 83 -95 176 -110 208 -25 51 -33 59 -69 68 -22 6 -64 22 -94 36 -54 26 -123 38 -151 26z"></path><path id="pyJcRkRhL" d="M1298 2355 c-73 -57 -81 -70 -111 -185 -72 -266 -71 -261 -50 -282 10 -10 34 -27 53 -37 41 -22 42 -34 11 -137 -23 -78 -43 -97 -103 -96 -21 1 -44 -6 -53 -14 -18 -19 -20 -50 -2 -61 6 -4 22 -26 33 -48 12 -22 32 -45 45 -52 13 -7 28 -18 34 -26 15 -21 115 -48 135 -37 9 5 27 6 39 3 32 -8 102 22 139 60 19 19 37 54 46 87 33 119 65 228 85 290 39 125 72 271 74 330 0 19 -8 63 -18 97 -17 56 -22 64 -53 74 -18 6 -36 17 -39 25 -7 18 -106 46 -137 38 -13 -3 -27 -1 -30 5 -13 21 -41 11 -98 -34z"></path></g></g><g id="l25vwxos4IHJG9aO3AKRDJf" fill="rgb(123,123,123)" style="transform: none;"><g><path id="pbooadmAH" d="M1427 2383 c-4 -4 -29 -8 -57 -9 -93 -4 -145 -61 -182 -200 -73 -272 -72 -265 -51 -286 10 -10 34 -27 53 -37 41 -22 42 -34 11 -137 -23 -78 -43 -97 -103 -96 -21 1 -44 -6 -53 -14 -18 -19 -20 -50 -2 -61 6 -4 22 -26 33 -48 12 -22 32 -45 45 -52 13 -7 28 -18 34 -26 15 -21 115 -48 135 -37 9 5 27 6 39 3 32 -8 102 22 139 60 19 19 37 54 46 87 33 119 65 228 85 290 39 125 72 271 74 330 0 19 -8 63 -18 97 -17 56 -22 64 -53 74 -18 6 -36 17 -39 25 -2 7 -29 20 -58 29 -60 17 -69 18 -78 8z"></path></g></g><g id="l3agV0UgodbobOIxhLHyS7l" fill="rgb(132,132,132)" style="transform: none;"><g><path id="p1C0yvFvDq" d="M2180 3129 c-56 -39 -70 -47 -245 -139 -55 -28 -106 -57 -114 -63 -7 -7 -45 -30 -85 -53 -70 -40 -71 -41 -70 -80 1 -54 47 -148 88 -179 40 -31 88 -33 116 -5 11 11 55 38 98 61 42 22 139 76 214 120 75 45 145 79 155 77 17 -3 133 -207 133 -234 0 -19 91 -184 101 -184 5 0 20 -22 33 -49 29 -56 57 -66 141 -49 56 12 119 67 131 115 7 28 -17 78 -182 378 -45 83 -95 176 -110 207 -31 64 -22 59 -199 101 -105 26 -141 22 -205 -24z"></path><path id="p1CwF28LqH" d="M1427 2383 c-4 -4 -29 -8 -57 -9 -52 -2 -91 -23 -132 -72 -22 -27 -39 -81 -98 -311 l-22 -83 23 -24 c12 -13 27 -24 33 -24 6 0 22 -9 34 -18 l24 -18 -23 -84 c-26 -93 -44 -116 -100 -125 -49 -8 -63 -26 -55 -67 8 -41 52 -108 71 -108 7 0 20 -8 27 -19 17 -23 116 -53 138 -41 9 5 27 6 39 3 32 -8 102 22 139 60 19 19 37 54 46 87 33 119 65 228 85 290 39 125 72 271 74 330 0 19 -8 63 -18 97 -17 56 -22 64 -53 74 -18 6 -36 17 -39 25 -2 7 -29 20 -58 29 -60 17 -69 18 -78 8z"></path></g></g><g id="l2fmr21Fb97Pm68rmMKhtqn" fill="rgb(140,140,140)" style="transform: none;"><g><path id="p1BQhrbcWQ" d="M1427 2383 c-4 -4 -29 -8 -57 -9 -52 -2 -91 -23 -132 -72 -22 -27 -39 -81 -98 -311 l-22 -83 23 -24 c12 -13 27 -24 33 -24 6 0 22 -9 34 -18 l24 -18 -23 -84 c-26 -93 -44 -116 -100 -125 -49 -8 -63 -26 -55 -67 8 -41 52 -108 71 -108 7 0 20 -8 27 -19 16 -23 116 -53 137 -41 9 4 28 6 43 3 21 -4 39 5 90 47 36 31 66 64 70 79 22 88 37 134 45 140 15 9 53 136 53 175 0 19 4 45 9 58 5 13 14 43 21 68 7 25 23 78 37 119 25 76 25 81 -4 183 -15 51 -21 59 -51 69 -18 6 -36 17 -39 25 -2 7 -29 20 -58 29 -60 17 -69 18 -78 8z"></path></g></g><g id="lnbVNQOTo7wLz24zyXLjQ1" fill="rgb(148,148,148)" style="transform: none;"><g><path id="p7yeD3yWR" d="M1427 2383 c-4 -4 -29 -8 -57 -9 -52 -2 -91 -23 -132 -72 -22 -27 -39 -81 -98 -311 l-22 -83 23 -24 c12 -13 40 -27 63 -32 39 -8 41 -10 38 -43 -1 -19 -8 -52 -16 -74 -8 -22 -17 -52 -20 -66 -8 -36 -76 -80 -118 -77 -32 3 -33 2 -32 -34 1 -42 46 -118 69 -118 7 0 20 -8 27 -19 16 -23 116 -53 137 -41 9 4 28 6 43 3 21 -4 39 5 90 47 36 31 66 64 70 79 22 88 37 134 45 140 15 9 53 136 53 175 0 19 4 45 9 58 5 13 14 43 21 68 7 25 23 78 37 119 25 76 25 81 -4 183 -15 51 -21 59 -51 69 -18 6 -36 17 -39 25 -2 7 -29 20 -58 29 -60 17 -69 18 -78 8z"></path><path id="pIuCsPoYI" d="M2401 1997 c-6 -8 -18 -30 -26 -50 -14 -35 -14 -40 7 -90 39 -91 129 -227 150 -227 6 0 25 -12 44 -27 82 -68 98 -77 173 -92 91 -18 229 -19 291 -2 24 7 60 24 78 38 34 25 34 26 30 94 -2 37 -7 71 -11 75 -4 5 -74 9 -155 9 l-147 2 -95 42 c-52 24 -115 58 -139 77 -24 19 -47 34 -51 34 -3 0 -30 29 -60 65 -55 67 -69 75 -89 52z"></path></g></g><g id="l30Fy4doKfM9MqkJ1UwBGOK" fill="rgb(156,156,156)" style="transform: none;"><g><path id="p16bhEPRwu" d="M2180 3129 c-56 -39 -70 -47 -245 -139 -55 -28 -106 -57 -114 -63 -7 -7 -45 -30 -85 -53 -70 -40 -71 -41 -70 -80 1 -54 47 -148 88 -179 40 -31 88 -33 116 -5 11 11 55 38 98 61 42 22 139 76 214 120 75 45 145 79 155 77 11 -2 37 -39 68 -100 28 -53 57 -104 66 -115 9 -10 49 -82 87 -159 80 -160 84 -163 187 -142 56 12 119 67 131 115 7 28 -17 78 -182 378 -45 83 -95 176 -110 207 -31 64 -22 59 -199 101 -105 26 -141 22 -205 -24z"></path><path id="pjNYhEbGR" d="M1427 2383 c-4 -4 -29 -8 -57 -9 -52 -2 -91 -23 -132 -72 -22 -27 -39 -81 -98 -311 l-22 -83 23 -24 c12 -13 40 -27 63 -32 39 -8 41 -10 38 -43 -1 -19 -8 -52 -16 -74 -8 -22 -17 -52 -20 -66 -8 -36 -76 -80 -118 -77 -32 3 -33 2 -32 -34 1 -42 46 -118 69 -118 7 0 20 -8 27 -19 16 -23 116 -53 137 -41 9 4 28 6 43 3 21 -4 39 5 90 47 36 31 66 64 70 79 3 14 13 51 22 81 9 30 25 87 35 125 10 39 27 97 38 130 11 33 26 80 32 105 7 25 24 78 38 119 25 76 25 81 -4 183 -15 51 -21 59 -51 69 -18 6 -36 17 -39 25 -2 7 -29 20 -58 29 -60 17 -69 18 -78 8z"></path><path id="pib0sPUZS" d="M2401 1997 c-6 -8 -18 -30 -26 -50 -14 -35 -14 -40 7 -90 32 -75 58 -117 73 -117 6 0 31 -27 54 -59 22 -33 54 -70 71 -83 16 -12 44 -34 61 -47 61 -47 292 -72 399 -42 24 7 60 24 78 38 34 25 34 26 30 94 -2 37 -7 71 -11 75 -4 5 -74 9 -155 9 l-147 2 -95 42 c-52 24 -115 58 -139 77 -24 19 -47 34 -51 34 -3 0 -30 29 -60 65 -55 67 -69 75 -89 52z"></path></g></g><g id="l2oYNVOxRdrJHCIp3IJofLu" fill="rgb(165,165,165)" style="transform: none;"><g><path id="p11RHyLO5r" d="M2210 3128 c-47 -23 -105 -51 -130 -63 -83 -41 -245 -127 -259 -138 -7 -7 -45 -30 -85 -53 -70 -40 -71 -41 -70 -80 1 -54 47 -148 88 -179 40 -31 88 -33 116 -5 11 11 55 38 98 61 42 22 139 76 214 120 75 45 145 79 155 77 11 -2 37 -39 68 -100 28 -53 57 -104 66 -115 9 -10 49 -82 87 -159 80 -160 84 -163 187 -142 56 12 119 67 131 115 7 28 -17 78 -182 378 -45 83 -95 176 -110 207 -26 54 -31 59 -79 71 -81 22 -189 47 -200 47 -6 0 -49 -19 -95 -42z"></path><path id="pKKOrYsXY" d="M1427 2383 c-4 -4 -29 -8 -57 -9 -80 -3 -160 -75 -160 -142 0 -38 -8 -66 -46 -172 -13 -36 -28 -85 -34 -109 -10 -39 -9 -45 11 -67 12 -13 40 -27 63 -32 39 -8 41 -10 38 -43 -1 -19 -8 -52 -16 -74 -8 -22 -17 -52 -20 -66 -8 -36 -76 -80 -118 -77 -32 3 -33 2 -32 -34 1 -42 46 -118 69 -118 7 0 20 -8 27 -19 16 -23 116 -53 137 -41 9 4 28 6 43 3 21 -4 39 5 90 47 36 31 66 64 70 79 3 14 13 51 22 81 9 30 25 87 35 125 10 39 27 97 38 130 11 33 26 80 32 105 7 25 24 78 38 119 25 76 25 81 -4 183 -15 51 -21 59 -51 69 -18 6 -36 17 -39 25 -2 7 -29 20 -58 29 -60 17 -69 18 -78 8z"></path></g></g><g id="l6oDAQtQg3K3MRjTdUb9Wy9" fill="rgb(173,173,173)" style="transform: none;"><g><path id="pMjHEKLgh" d="M2210 3128 c-47 -23 -107 -52 -135 -66 -90 -42 -155 -83 -150 -93 4 -5 2 -9 -2 -9 -5 0 -52 -25 -105 -55 -53 -30 -105 -55 -116 -55 -50 0 -53 -54 -8 -152 44 -95 127 -137 176 -88 11 11 55 38 98 61 42 22 139 76 214 120 75 45 145 79 155 77 11 -2 37 -39 68 -100 28 -53 57 -104 66 -115 9 -10 49 -82 87 -159 80 -160 84 -163 187 -142 56 12 119 67 131 115 7 28 -17 78 -182 378 -45 83 -95 176 -110 207 -26 54 -31 59 -79 71 -81 22 -189 47 -200 47 -6 0 -49 -19 -95 -42z"></path><path id="p1HV4I6Qip" d="M1427 2383 c-4 -4 -29 -8 -57 -9 -80 -3 -160 -75 -160 -142 0 -38 -8 -66 -46 -172 -13 -36 -28 -85 -34 -109 -10 -39 -9 -45 11 -67 12 -13 40 -27 63 -32 39 -8 41 -10 38 -43 -1 -19 -8 -52 -16 -74 -8 -22 -17 -52 -20 -66 -8 -36 -76 -80 -118 -77 -32 3 -33 2 -32 -33 1 -50 39 -109 69 -109 12 0 29 -7 36 -16 22 -27 60 -36 143 -35 76 1 80 2 130 42 29 23 54 52 58 67 3 15 13 52 22 82 9 30 25 87 35 125 10 39 27 97 38 130 11 33 26 80 32 105 7 25 24 78 37 118 18 52 23 83 18 110 -8 47 -50 109 -86 128 -16 8 -28 23 -28 34 0 14 -13 22 -54 34 -61 18 -70 19 -79 9z"></path><path id="pXYUsA9nm" d="M2395 1960 c-8 -16 -15 -38 -15 -50 0 -47 149 -278 206 -317 14 -10 39 -29 55 -42 59 -47 292 -72 399 -42 24 7 60 24 78 38 34 25 34 26 30 94 -2 37 -7 71 -11 75 -4 5 -74 9 -155 9 -137 2 -152 3 -206 28 -32 15 -71 27 -87 27 -17 0 -32 7 -38 18 -5 9 -28 31 -51 47 -23 17 -68 56 -99 88 -32 31 -65 57 -74 57 -9 0 -23 -13 -32 -30z"></path></g></g><g id="llhi5yLdg0ad5rW9JkhMyw" fill="rgb(181,181,181)" style="transform: none;"><g><path id="ptGhh67rS" d="M2217 3130 c-41 -22 -82 -40 -89 -40 -8 0 -32 -15 -54 -33 -34 -29 -200 -125 -337 -195 -53 -28 -62 -48 -54 -120 4 -41 12 -53 57 -94 28 -27 60 -48 72 -48 24 0 195 89 375 194 72 43 140 76 150 74 11 -2 37 -39 68 -100 28 -53 57 -104 66 -115 9 -10 49 -82 87 -159 67 -134 73 -142 104 -147 62 -10 130 12 170 55 21 21 41 50 44 63 7 30 -10 75 -41 109 -27 30 -85 134 -85 154 0 8 -38 85 -84 171 -47 86 -90 168 -97 183 -13 29 -24 33 -184 71 -38 10 -75 17 -81 17 -6 0 -45 -18 -87 -40z"></path><path id="ppbBzy2up" d="M2395 1960 c-8 -16 -15 -38 -15 -50 0 -47 149 -278 206 -317 14 -10 39 -29 56 -43 26 -20 49 -27 122 -34 180 -17 261 -9 330 33 35 22 36 24 36 86 0 59 -2 63 -25 69 -14 4 -54 4 -89 0 -51 -5 -69 -3 -87 10 -13 9 -42 16 -64 16 -22 0 -64 11 -93 25 -30 14 -67 25 -83 25 -17 0 -32 7 -38 18 -5 9 -28 31 -51 47 -23 17 -68 56 -99 88 -32 31 -65 57 -74 57 -9 0 -23 -13 -32 -30z"></path></g></g><g id="lUGMi3Jk0H6QeZFLJ5Wwoa" fill="rgb(189,189,189)" style="transform: none;"><g><path id="pG7tO59hT" d="M2217 3130 c-41 -22 -82 -40 -89 -40 -8 0 -32 -15 -54 -33 -34 -29 -200 -125 -337 -195 -53 -28 -62 -48 -54 -120 4 -41 12 -53 57 -94 28 -27 61 -48 72 -48 42 0 401 201 449 251 28 30 69 45 94 35 9 -3 73 -124 144 -269 126 -260 129 -264 162 -270 63 -10 130 12 171 55 21 21 41 50 44 63 7 30 -10 75 -41 109 -28 30 -85 134 -85 154 0 22 -133 262 -145 262 -5 0 -19 21 -30 46 -21 48 -42 67 -90 78 -16 4 -43 14 -60 21 -44 19 -96 35 -115 35 -9 0 -51 -18 -93 -40z"></path><path id="p88vXbM8X" d="M2395 1960 c-22 -43 -19 -64 20 -136 56 -104 103 -159 187 -219 68 -49 91 -60 181 -81 130 -32 231 -24 311 25 35 22 36 24 36 86 0 59 -2 63 -25 69 -14 4 -54 4 -89 0 -51 -5 -69 -3 -87 10 -13 9 -42 16 -64 16 -22 0 -64 11 -93 25 -30 14 -67 25 -83 25 -17 0 -32 7 -38 18 -5 9 -28 31 -51 47 -23 17 -68 56 -99 88 -32 31 -65 57 -74 57 -9 0 -23 -13 -32 -30z"></path></g></g><g id="l05ObcLJ5J6045xgcekrP0" fill="rgb(197,197,197)" style="transform: none;"><g><path id="p5zToQ5Y2" d="M2217 3130 c-41 -22 -82 -40 -89 -40 -8 0 -32 -15 -54 -33 -34 -29 -200 -125 -337 -195 -53 -28 -62 -48 -54 -120 4 -41 12 -53 57 -94 28 -27 60 -48 71 -48 26 0 229 105 249 129 8 9 49 37 90 61 41 24 95 56 120 72 82 53 78 57 225 -240 l129 -263 66 4 c109 8 129 16 161 60 16 22 29 49 29 60 0 22 -46 107 -59 107 -4 0 -15 17 -25 38 -10 20 -41 75 -69 122 -28 47 -50 94 -49 105 1 23 -58 135 -73 135 -5 0 -19 21 -30 46 -21 48 -42 67 -90 78 -16 4 -43 14 -60 21 -44 19 -96 35 -115 35 -9 0 -51 -18 -93 -40z"></path><path id="pgsWGCeR0" d="M1294 2325 c-54 -47 -62 -61 -83 -126 -13 -41 -34 -103 -47 -139 -13 -36 -28 -85 -34 -109 -10 -39 -9 -45 11 -67 12 -13 40 -27 63 -32 39 -8 41 -10 38 -43 -1 -19 -8 -52 -16 -74 -8 -22 -17 -52 -20 -66 -8 -36 -76 -80 -118 -77 -32 3 -33 2 -32 -33 1 -50 39 -109 69 -109 12 0 29 -7 36 -16 22 -27 60 -36 143 -35 76 1 80 2 130 42 29 23 54 52 58 67 3 15 13 52 22 82 9 30 25 87 35 125 10 39 27 97 38 130 11 33 26 80 32 105 7 25 24 78 37 118 18 52 23 83 18 110 -8 47 -50 109 -86 128 -15 8 -28 19 -28 24 0 11 -90 36 -156 43 -49 6 -51 5 -110 -48z"></path></g></g><g id="l7D63a6Kqds6p1KiK09phpL" fill="rgb(206,206,206)" style="transform: none;"><g><path id="pIl5x2Cj7" d="M2224 3134 c-38 -20 -78 -44 -89 -54 -11 -9 -56 -35 -100 -58 -44 -22 -120 -63 -170 -91 -49 -29 -109 -61 -132 -72 -49 -23 -58 -45 -50 -117 4 -41 12 -53 57 -94 28 -27 60 -48 71 -48 26 0 229 105 249 129 8 9 49 37 90 61 41 24 95 56 120 72 82 53 78 57 225 -240 l129 -263 66 4 c109 8 129 16 161 60 16 22 29 49 29 60 0 22 -46 107 -59 107 -4 0 -15 17 -25 38 -10 20 -39 73 -66 117 -26 44 -77 138 -113 209 -68 133 -81 148 -132 160 -16 4 -43 14 -60 21 -44 19 -96 35 -115 35 -9 0 -48 -16 -86 -36z"></path><path id="pdF0gX74u" d="M1294 2325 c-54 -47 -62 -61 -83 -126 -13 -41 -34 -103 -47 -139 -13 -36 -28 -85 -34 -109 -10 -39 -9 -45 11 -67 12 -13 40 -27 63 -32 39 -8 41 -10 38 -43 -1 -19 -8 -52 -16 -74 -8 -22 -17 -52 -20 -66 -8 -36 -76 -80 -118 -77 -28 3 -34 -1 -36 -20 -2 -14 5 -33 16 -45 11 -12 25 -32 31 -44 6 -13 18 -23 25 -23 7 0 21 -10 32 -21 29 -32 61 -41 148 -40 76 1 80 2 130 42 29 23 54 52 58 67 3 15 13 52 22 82 9 30 25 87 35 125 10 39 27 97 38 130 11 33 26 80 32 105 7 25 24 78 37 118 18 52 23 83 18 110 -8 47 -50 109 -86 128 -15 8 -28 19 -28 24 0 11 -90 36 -156 43 -49 6 -51 5 -110 -48z"></path></g></g><g id="l3LAIgCCajuhIzDJ1GpcBFR" fill="rgb(214,214,214)" style="transform: none;"><g><path id="pfJdlN6OS" d="M1294 2325 c-54 -47 -62 -61 -83 -126 -13 -41 -34 -103 -47 -139 -13 -36 -28 -85 -34 -109 -10 -39 -9 -45 11 -67 12 -13 40 -27 63 -32 39 -8 41 -10 38 -43 -1 -19 -8 -52 -16 -74 -8 -22 -17 -52 -20 -66 -8 -36 -76 -80 -118 -77 -28 3 -34 -1 -36 -20 -2 -14 5 -33 16 -45 11 -12 25 -32 31 -44 6 -13 18 -23 25 -23 7 0 21 -10 32 -21 29 -32 61 -41 148 -40 76 1 80 2 130 42 29 23 54 52 58 67 3 15 13 52 22 82 9 30 25 87 35 125 10 39 27 97 38 130 11 33 26 80 33 105 7 25 19 65 26 90 17 56 18 101 5 163 -14 64 -26 84 -61 102 -17 9 -30 20 -30 25 0 11 -90 36 -156 43 -49 6 -51 5 -110 -48z"></path></g></g><g id="l4A8L2reKbCXYDRtlmm1KpO" fill="rgb(222,222,222)" style="transform: none;"><g></g></g><g id="l66PRglLhIyALjJdLmphEER" fill="rgb(230,230,230)" style="transform: none;"><g><path id="pshktUSSZ" d="M2224 3134 c-38 -20 -78 -44 -89 -54 -11 -9 -56 -35 -100 -58 -44 -22 -120 -63 -170 -91 -49 -29 -109 -61 -132 -72 -49 -23 -58 -45 -50 -117 4 -41 12 -53 57 -94 28 -27 60 -48 71 -48 27 0 90 33 114 60 11 12 56 40 100 62 79 40 158 85 245 140 82 53 78 57 224 -239 l130 -263 61 0 c52 0 67 4 91 25 16 14 32 25 36 25 3 0 16 16 28 36 21 33 22 37 7 67 -9 18 -28 59 -42 92 -14 32 -48 95 -74 140 -27 44 -78 138 -114 209 -68 133 -81 148 -132 160 -16 4 -43 14 -60 21 -44 19 -96 35 -115 35 -9 0 -48 -16 -86 -36z"></path><path id="ppwYHHM29" d="M1425 2359 c-4 -5 -19 -9 -33 -8 -56 4 -74 -2 -115 -41 -35 -31 -48 -54 -66 -112 -13 -40 -34 -102 -47 -138 -13 -36 -28 -85 -34 -109 -10 -39 -9 -45 11 -67 12 -13 40 -27 63 -32 39 -8 41 -10 38 -43 -1 -19 -8 -52 -16 -74 -8 -22 -17 -52 -20 -66 -8 -36 -76 -80 -118 -77 -28 3 -34 -1 -36 -20 -2 -14 5 -33 16 -45 11 -12 25 -32 31 -44 6 -13 18 -23 25 -23 7 0 21 -10 32 -21 29 -32 61 -41 148 -40 76 1 80 2 130 42 29 23 54 52 58 67 3 15 13 52 22 82 9 30 25 87 35 125 10 39 27 97 38 130 11 33 26 80 33 105 7 25 19 65 26 90 17 56 18 101 5 163 -14 64 -26 84 -61 102 -17 9 -30 20 -30 25 0 5 -24 16 -54 24 -64 19 -73 19 -81 5z"></path><path id="pW8c2ERRt" d="M2395 1960 c-22 -43 -19 -64 20 -136 56 -104 103 -159 187 -219 68 -49 91 -60 181 -81 130 -32 231 -24 311 25 35 22 36 24 36 86 0 59 -1 63 -26 69 -14 4 -51 4 -82 1 -180 -20 -379 58 -518 201 -29 30 -54 60 -57 69 -10 24 -35 17 -52 -15z"></path></g></g><g id="l3FSxqHGY3AKRePohoioSOJ" fill="rgb(239,239,239)" style="transform: none;"><g><path id="ps6vTvB2C" d="M1425 2359 c-4 -5 -19 -9 -33 -8 -55 4 -73 -2 -113 -38 -53 -48 -71 -92 -68 -173 3 -63 -11 -110 -31 -110 -6 0 -10 -7 -10 -15 0 -9 -7 -18 -15 -21 -8 -3 -20 -24 -26 -46 -9 -36 -8 -43 12 -64 12 -13 40 -27 63 -32 39 -8 41 -10 38 -43 -1 -19 -8 -52 -16 -74 -8 -22 -17 -52 -20 -66 -8 -36 -76 -80 -118 -77 -28 3 -34 -1 -36 -20 -2 -14 5 -33 16 -45 11 -12 25 -32 31 -44 6 -13 18 -23 25 -23 7 0 21 -10 32 -21 29 -32 61 -41 148 -40 76 1 80 2 130 42 29 23 54 52 58 67 3 15 13 52 22 82 9 30 25 87 35 125 10 39 27 97 38 130 11 33 26 80 33 105 7 25 19 65 26 90 17 56 18 101 5 163 -14 64 -26 84 -61 102 -17 9 -30 20 -30 25 0 5 -24 16 -54 24 -64 19 -73 19 -81 5z"></path></g></g><g id="l41tjH4JqIL64mtXuHIrsYR" fill="rgb(247,247,247)" style="transform: none;"><g><path id="pJqJmmDO7" d="M2270 3140 c-45 -6 -123 -41 -135 -60 -3 -5 -45 -29 -93 -54 -48 -24 -127 -67 -177 -95 -49 -29 -109 -61 -132 -72 -49 -23 -58 -45 -50 -117 4 -41 12 -53 57 -94 28 -27 60 -48 71 -48 27 0 90 33 114 60 11 12 56 40 100 62 79 40 158 85 245 140 80 51 82 50 195 -180 89 -181 103 -204 128 -209 25 -5 27 -9 27 -59 l0 -54 63 0 c54 0 69 4 93 25 16 14 32 25 36 25 3 0 16 16 28 36 21 33 22 37 7 67 -9 18 -28 59 -42 92 -14 32 -48 96 -74 140 -27 44 -79 140 -116 213 -50 98 -74 133 -89 136 -117 21 -155 30 -181 40 -17 7 -49 9 -75 6z"></path><path id="pnWcClihK" d="M1425 2359 c-4 -5 -19 -9 -33 -8 -55 4 -73 -2 -113 -38 -53 -48 -71 -92 -68 -173 3 -63 -11 -110 -31 -110 -6 0 -10 -7 -10 -15 0 -9 -7 -18 -15 -21 -8 -3 -20 -24 -26 -46 -14 -54 0 -69 40 -45 44 26 74 22 94 -13 18 -30 15 -74 -7 -88 -10 -6 -32 -66 -51 -138 -8 -32 -78 -75 -117 -72 -28 3 -34 -1 -36 -20 -2 -14 5 -33 16 -45 11 -12 25 -32 31 -44 6 -13 18 -23 25 -23 7 0 21 -10 32 -21 29 -32 61 -41 148 -40 76 1 80 2 130 42 29 23 54 52 58 67 3 15 13 52 22 82 60 201 74 270 57 270 -6 0 -11 6 -11 14 0 24 39 104 54 109 17 7 45 90 46 137 1 41 -15 122 -30 150 -6 11 -24 27 -40 35 -17 9 -30 20 -30 25 0 5 -24 16 -54 24 -64 19 -73 19 -81 5z"></path><path id="pyE6mBn7f" d="M2410 1900 c0 -70 10 -95 68 -177 29 -40 72 -81 124 -118 68 -49 91 -60 181 -81 130 -32 231 -24 311 25 35 22 36 24 36 86 0 59 -1 63 -26 69 -14 4 -51 4 -82 1 -180 -20 -379 58 -519 202 -29 31 -60 53 -72 53 -19 0 -21 -6 -21 -60z"></path></g></g><g id="l4GtGi0cZ5juzubyrRAhy6H" fill="rgb(255,255,255)" style="transform: none;"><g><path id="pTmhW8FpG" d="M2300 3142 c-8 -3 -31 -21 -50 -42 -25 -25 -48 -39 -75 -43 -22 -4 -56 -10 -75 -13 -19 -3 -49 -13 -67 -22 -33 -16 -33 -19 -18 -96 4 -20 -11 -46 -26 -46 -5 0 -9 9 -9 20 0 25 -41 53 -72 48 -19 -2 -23 -10 -26 -45 -3 -38 -6 -43 -38 -53 -31 -11 -35 -15 -29 -37 l6 -25 -29 18 c-29 16 -31 16 -61 -5 -17 -12 -31 -25 -31 -28 0 -2 12 -22 28 -44 28 -40 49 -47 81 -28 14 10 27 7 64 -11 l46 -23 93 48 c93 48 175 94 258 147 64 41 88 35 124 -30 22 -42 32 -53 47 -49 14 4 19 0 19 -13 0 -10 18 -34 41 -53 31 -27 39 -40 34 -56 -10 -32 21 -81 51 -81 57 0 79 -34 49 -74 -10 -13 -15 -43 -15 -83 l0 -63 63 0 c54 0 69 4 93 25 16 14 32 25 36 25 3 0 16 16 28 36 21 33 22 37 7 67 -9 18 -28 59 -42 92 -14 32 -48 96 -74 140 -27 44 -79 140 -116 213 -50 98 -74 133 -89 136 -118 21 -155 30 -181 40 -16 7 -37 11 -45 8z"></path><path id="pnC13xH25" d="M1425 2359 c-4 -5 -19 -9 -33 -8 -55 4 -73 -2 -113 -38 -52 -47 -70 -92 -69 -173 0 -36 0 -72 0 -80 -2 -30 29 -130 49 -164 23 -37 21 -83 -5 -93 -7 -2 -16 -25 -20 -51 -5 -35 -2 -53 12 -79 22 -41 15 -57 -41 -87 -56 -30 -74 -55 -70 -95 4 -43 39 -78 90 -89 53 -12 89 1 80 28 -5 15 -3 18 8 14 9 -3 27 11 47 37 29 36 32 44 21 61 -9 14 -9 24 -2 31 7 7 5 19 -4 38 -26 48 -9 64 60 60 38 -3 97 51 77 71 -19 19 -14 38 18 65 20 16 30 34 30 53 0 15 9 49 21 75 l21 47 -21 29 c-12 15 -21 35 -21 44 0 24 20 56 30 50 5 -3 24 5 42 17 28 19 32 27 26 48 -3 14 -12 44 -18 68 -8 33 -20 48 -46 64 -19 11 -34 24 -34 28 0 8 -95 40 -118 40 -6 0 -14 -5 -17 -11z"></path><path id="puF9lmG0W" d="M2410 1900 c0 -40 7 -75 21 -105 23 -48 34 -53 65 -30 26 20 54 19 70 -2 16 -21 19 -99 4 -108 -18 -11 -11 -21 51 -64 48 -34 81 -48 162 -67 130 -32 231 -24 311 25 35 22 36 24 36 86 0 59 -1 63 -26 69 -14 4 -51 4 -82 1 -180 -20 -379 58 -519 202 -29 31 -60 53 -72 53 -19 0 -21 -6 -21 -60z"></path><path id="p0CqXyGBp" d="M1380 1631 c0 -5 7 -12 16 -15 13 -5 15 -15 11 -41 -5 -33 -4 -35 34 -46 47 -14 57 -8 69 44 9 41 1 47 -60 47 -21 0 -42 5 -45 10 -8 12 -25 13 -25 1z"></path></g></g></svg>